<mxfile host="app.diagrams.net" modified="2023-09-30T05:43:05.005Z" agent="Mozilla/5.0 (Windows NT 10.0; Win64; x64) AppleWebKit/537.36 (KHTML, like Gecko) Chrome/116.0.0.0 Safari/537.36" etag="nKl_99utHFHemlakgVGc" version="22.0.0" type="device">
  <diagram name="Page-1" id="Zljk7JJw6JkoEN-SxIgo">
    <mxGraphModel dx="1900" dy="581" grid="1" gridSize="10" guides="1" tooltips="1" connect="1" arrows="1" fold="1" page="1" pageScale="1" pageWidth="850" pageHeight="1100" math="0" shadow="0">
      <root>
        <mxCell id="0" />
        <mxCell id="1" parent="0" />
        <UserObject label="" plantUmlData="{&quot;data&quot;:&quot;@startuml\n\nclass Animal {\n  +name: String\n  +age: int\n  +livesIn: String\n\n  +Animal()\n  +Animal(name: String, age: int)\n  +eat(food: Food): void\n}\n\nclass TerrestrialAnimal {\n  +TerrestrialAnimal()\n  +TerrestrialAnimal(name: String, age: int)\n}\n\nclass AquaticAnimal {\n  +AquaticAnimal()\n  +AquaticAnimal(name: String, age: int)\n}\n\nclass AvianAnimal {\n  +AvianAnimal()\n  +AvianAnimal(name: String, age: int)\n}\n\ninterface Food {\n  +getName(): String\n}\n\nclass Mammal {\n  {abstract} +reproduce(): String\n}\n\nclass Oviparous {\n  {abstract} +reproduce(): String\n}\n\nclass Dog {\n  +Dog()\n  +Dog(name: String, age: int)\n  +reproduce(): String\n}\n\nclass Cat {\n  +Cat()\n  +Cat(name: String, age: int)\n  +reproduce(): String\n}\n\nclass Shark {\n  +Shark()\n  +Shark(name: String, age: int)\n  +reproduce(): String\n}\n\nclass Whale {\n  +Whale()\n  +Whale(name: String, age: int)\n  +reproduce(): String\n}\n\nclass Owl {\n  +Owl()\n  +Owl(name: String, age: int)\n  +reproduce(): String\n}\n\nclass CatFood {\n  +getName(): String\n}\n\nclass DogFood {\n  +getName(): String\n}\n\nclass FishFood {\n  +getName(): String\n}\n\nclass BirdFood {\n  +getName(): String\n}\n\nAnimal &lt;|-- TerrestrialAnimal\nAnimal &lt;|-- AquaticAnimal\nAnimal &lt;|-- AvianAnimal\nAnimal --|&gt; Food : consumes &gt;\n\nTerrestrialAnimal --|&gt; Animal\nAquaticAnimal --|&gt; Animal\nAvianAnimal --|&gt; Animal\n\nDog --|&gt; TerrestrialAnimal\nCat --|&gt; TerrestrialAnimal\nShark --|&gt; AquaticAnimal\nWhale --|&gt; AquaticAnimal\nOwl --|&gt; AvianAnimal\n\nDog ..|&gt; Mammal\nCat ..|&gt; Mammal\nShark ..|&gt; Oviparous\nWhale ..|&gt; Mammal\nOwl ..|&gt; Mammal\n\nFood &lt;|.. CatFood\nFood &lt;|.. DogFood\nFood &lt;|.. FishFood\nFood &lt;|.. BirdFood\n\n@enduml\n&quot;,&quot;format&quot;:&quot;svg&quot;}" id="nUW0GgHGnoVXz3FGs3HW-1">
          <mxCell style="shape=image;noLabel=1;verticalAlign=top;aspect=fixed;imageAspect=0;image=data:image/svg+xml,PD94bWwgdmVyc2lvbj0iMS4wIiBlbmNvZGluZz0idXMtYXNjaWkiIHN0YW5kYWxvbmU9Im5vIj8+PHN2ZyB4bWxucz0iaHR0cDovL3d3dy53My5vcmcvMjAwMC9zdmciIHhtbG5zOnhsaW5rPSJodHRwOi8vd3d3LnczLm9yZy8xOTk5L3hsaW5rIiBjb250ZW50U3R5bGVUeXBlPSJ0ZXh0L2NzcyIgaGVpZ2h0PSI0MjhweCIgcHJlc2VydmVBc3BlY3RSYXRpbz0ibm9uZSIgc3R5bGU9IndpZHRoOjE3NjRweDtoZWlnaHQ6NDI4cHg7YmFja2dyb3VuZDojRkZGRkZGOyIgdmVyc2lvbj0iMS4xIiB2aWV3Qm94PSIwIDAgMTc2NCA0MjgiIHdpZHRoPSIxNzY0cHgiIHpvb21BbmRQYW49Im1hZ25pZnkiPjxkZWZzLz48Zz48IS0tY2xhc3MgQW5pbWFsLS0+PGcgaWQ9ImVsZW1fQW5pbWFsIj48cmVjdCBjb2RlTGluZT0iMSIgZmlsbD0iI0YxRjFGMSIgaGVpZ2h0PSIxMzcuOTA2MyIgaWQ9IkFuaW1hbCIgcng9IjIuNSIgcnk9IjIuNSIgc3R5bGU9InN0cm9rZTojMTgxODE4O3N0cm9rZS13aWR0aDowLjU7IiB3aWR0aD0iMjQwIiB4PSIxMDM1IiB5PSI3Ii8+PGVsbGlwc2UgY3g9IjExMjkuMjUiIGN5PSIyMyIgZmlsbD0iI0FERDFCMiIgcng9IjExIiByeT0iMTEiIHN0eWxlPSJzdHJva2U6IzE4MTgxODtzdHJva2Utd2lkdGg6MS4wOyIvPjxwYXRoIGQ9Ik0xMTI2Ljg3NSwyNy4yNSBMMTEyNi44NzUsMjkgTDExMzEuODEyNSwyOSBMMTEzMS44MTI1LDI3LjI1IEwxMTI2Ljg3NSwyNy4yNSBaIE0xMTI3LjU2MjUsMjcuOTM3NSBRMTEyNy41NjI1LDI3LjkzNzUgMTEyNy41NjI1LDE4Ljc1IEwxMTI1LjgxMjUsMTguNzUgUTExMjUuODEyNSwxOC43NSAxMTI1LjgxMjUsMjcuOTM3NSBMMTEyNy41NjI1LDI3LjkzNzUgWiBNMTEzMS4xMjUsMjcuOTM3NSBMMTEzMi44NzUsMjcuOTM3NSBRMTEzMi44NzUsMjcuOTM3NSAxMTMyLjg3NSwyNS4xMjUgTDExMzEuMTI1LDI1LjEyNSBRMTEzMS4xMjUsMjUuMTI1IDExMzEuMTI1LDI3LjkzNzUgWiBNMTEzMS4xMjUsMTguNzUgUTExMzEuMTI1LDE4Ljc1IDExMzEuMTI1LDIxLjU2MjUgTDExMzIuODc1LDIxLjU2MjUgUTExMzIuODc1LDIxLjU2MjUgMTEzMi44NzUsMTguNzUgTDExMzEuMTI1LDE4Ljc1IFogTTExMjYuODc1LDE5LjQzNzUgTDExMzEuODEyNSwxOS40Mzc1IEwxMTMxLjgxMjUsMTcuNjg3NSBMMTEyNi44NzUsMTcuNjg3NSBMMTEyNi44NzUsMTkuNDM3NSBaICIgZmlsbD0iIzAwMDAwMCIvPjx0ZXh0IGZpbGw9IiMwMDAwMDAiIGZvbnQtZmFtaWx5PSJzYW5zLXNlcmlmIiBmb250LXNpemU9IjE0IiBsZW5ndGhBZGp1c3Q9InNwYWNpbmciIHRleHRMZW5ndGg9IjQzIiB4PSIxMTQ5Ljc1IiB5PSIyOC43NDIyIj5BbmltYWw8L3RleHQ+PGxpbmUgc3R5bGU9InN0cm9rZTojMTgxODE4O3N0cm9rZS13aWR0aDowLjU7IiB4MT0iMTAzNiIgeDI9IjEyNzQiIHkxPSIzOSIgeTI9IjM5Ii8+PGVsbGlwc2UgY3g9IjEwNDYiIGN5PSI1MS45OTIyIiBmaWxsPSJub25lIiByeD0iMyIgcnk9IjMiIHN0eWxlPSJzdHJva2U6IzAzODA0ODtzdHJva2Utd2lkdGg6MS4wOyIvPjx0ZXh0IGZpbGw9IiMwMDAwMDAiIGZvbnQtZmFtaWx5PSJzYW5zLXNlcmlmIiBmb250LXNpemU9IjE0IiBsZW5ndGhBZGp1c3Q9InNwYWNpbmciIHRleHRMZW5ndGg9Ijg1IiB4PSIxMDU1IiB5PSI1Ni4yMzQ0Ij5uYW1lOiBTdHJpbmc8L3RleHQ+PGVsbGlwc2UgY3g9IjEwNDYiIGN5PSI2Ni45NzY2IiBmaWxsPSJub25lIiByeD0iMyIgcnk9IjMiIHN0eWxlPSJzdHJva2U6IzAzODA0ODtzdHJva2Utd2lkdGg6MS4wOyIvPjx0ZXh0IGZpbGw9IiMwMDAwMDAiIGZvbnQtZmFtaWx5PSJzYW5zLXNlcmlmIiBmb250LXNpemU9IjE0IiBsZW5ndGhBZGp1c3Q9InNwYWNpbmciIHRleHRMZW5ndGg9IjU2IiB4PSIxMDU1IiB5PSI3MS4yMTg4Ij5hZ2U6IGludDwvdGV4dD48ZWxsaXBzZSBjeD0iMTA0NiIgY3k9IjgxLjk2MDkiIGZpbGw9Im5vbmUiIHJ4PSIzIiByeT0iMyIgc3R5bGU9InN0cm9rZTojMDM4MDQ4O3N0cm9rZS13aWR0aDoxLjA7Ii8+PHRleHQgZmlsbD0iIzAwMDAwMCIgZm9udC1mYW1pbHk9InNhbnMtc2VyaWYiIGZvbnQtc2l6ZT0iMTQiIGxlbmd0aEFkanVzdD0ic3BhY2luZyIgdGV4dExlbmd0aD0iMTA1IiB4PSIxMDU1IiB5PSI4Ni4yMDMxIj5saXZlc0luOiBTdHJpbmc8L3RleHQ+PGxpbmUgc3R5bGU9InN0cm9rZTojMTgxODE4O3N0cm9rZS13aWR0aDowLjU7IiB4MT0iMTAzNiIgeDI9IjEyNzQiIHkxPSI5MS45NTMxIiB5Mj0iOTEuOTUzMSIvPjxlbGxpcHNlIGN4PSIxMDQ2IiBjeT0iMTA0Ljk0NTMiIGZpbGw9IiM4NEJFODQiIHJ4PSIzIiByeT0iMyIgc3R5bGU9InN0cm9rZTojMDM4MDQ4O3N0cm9rZS13aWR0aDoxLjA7Ii8+PHRleHQgZmlsbD0iIzAwMDAwMCIgZm9udC1mYW1pbHk9InNhbnMtc2VyaWYiIGZvbnQtc2l6ZT0iMTQiIGxlbmd0aEFkanVzdD0ic3BhY2luZyIgdGV4dExlbmd0aD0iNTkiIHg9IjEwNTUiIHk9IjEwOS4xODc1Ij5BbmltYWwoKTwvdGV4dD48ZWxsaXBzZSBjeD0iMTA0NiIgY3k9IjExOS45Mjk3IiBmaWxsPSIjODRCRTg0IiByeD0iMyIgcnk9IjMiIHN0eWxlPSJzdHJva2U6IzAzODA0ODtzdHJva2Utd2lkdGg6MS4wOyIvPjx0ZXh0IGZpbGw9IiMwMDAwMDAiIGZvbnQtZmFtaWx5PSJzYW5zLXNlcmlmIiBmb250LXNpemU9IjE0IiBsZW5ndGhBZGp1c3Q9InNwYWNpbmciIHRleHRMZW5ndGg9IjIxNCIgeD0iMTA1NSIgeT0iMTI0LjE3MTkiPkFuaW1hbChuYW1lOiBTdHJpbmcsIGFnZTogaW50KTwvdGV4dD48ZWxsaXBzZSBjeD0iMTA0NiIgY3k9IjEzNC45MTQxIiBmaWxsPSIjODRCRTg0IiByeD0iMyIgcnk9IjMiIHN0eWxlPSJzdHJva2U6IzAzODA0ODtzdHJva2Utd2lkdGg6MS4wOyIvPjx0ZXh0IGZpbGw9IiMwMDAwMDAiIGZvbnQtZmFtaWx5PSJzYW5zLXNlcmlmIiBmb250LXNpemU9IjE0IiBsZW5ndGhBZGp1c3Q9InNwYWNpbmciIHRleHRMZW5ndGg9IjE0OSIgeD0iMTA1NSIgeT0iMTM5LjE1NjMiPmVhdChmb29kOiBGb29kKTogdm9pZDwvdGV4dD48L2c+PCEtLWNsYXNzIFRlcnJlc3RyaWFsQW5pbWFsLS0+PGcgaWQ9ImVsZW1fVGVycmVzdHJpYWxBbmltYWwiPjxyZWN0IGNvZGVMaW5lPSIxMSIgZmlsbD0iI0YxRjFGMSIgaGVpZ2h0PSI3Ny45Njg4IiBpZD0iVGVycmVzdHJpYWxBbmltYWwiIHJ4PSIyLjUiIHJ5PSIyLjUiIHN0eWxlPSJzdHJva2U6IzE4MTgxODtzdHJva2Utd2lkdGg6MC41OyIgd2lkdGg9IjMxNyIgeD0iMzQ4LjUiIHk9IjIyMCIvPjxlbGxpcHNlIGN4PSI0NDIuNzUiIGN5PSIyMzYiIGZpbGw9IiNBREQxQjIiIHJ4PSIxMSIgcnk9IjExIiBzdHlsZT0ic3Ryb2tlOiMxODE4MTg7c3Ryb2tlLXdpZHRoOjEuMDsiLz48cGF0aCBkPSJNNDQwLjM3NSwyNDAuMjUgTDQ0MC4zNzUsMjQyIEw0NDUuMzEyNSwyNDIgTDQ0NS4zMTI1LDI0MC4yNSBMNDQwLjM3NSwyNDAuMjUgWiBNNDQxLjA2MjUsMjQwLjkzNzUgUTQ0MS4wNjI1LDI0MC45Mzc1IDQ0MS4wNjI1LDIzMS43NSBMNDM5LjMxMjUsMjMxLjc1IFE0MzkuMzEyNSwyMzEuNzUgNDM5LjMxMjUsMjQwLjkzNzUgTDQ0MS4wNjI1LDI0MC45Mzc1IFogTTQ0NC42MjUsMjQwLjkzNzUgTDQ0Ni4zNzUsMjQwLjkzNzUgUTQ0Ni4zNzUsMjQwLjkzNzUgNDQ2LjM3NSwyMzguMTI1IEw0NDQuNjI1LDIzOC4xMjUgUTQ0NC42MjUsMjM4LjEyNSA0NDQuNjI1LDI0MC45Mzc1IFogTTQ0NC42MjUsMjMxLjc1IFE0NDQuNjI1LDIzMS43NSA0NDQuNjI1LDIzNC41NjI1IEw0NDYuMzc1LDIzNC41NjI1IFE0NDYuMzc1LDIzNC41NjI1IDQ0Ni4zNzUsMjMxLjc1IEw0NDQuNjI1LDIzMS43NSBaIE00NDAuMzc1LDIzMi40Mzc1IEw0NDUuMzEyNSwyMzIuNDM3NSBMNDQ1LjMxMjUsMjMwLjY4NzUgTDQ0MC4zNzUsMjMwLjY4NzUgTDQ0MC4zNzUsMjMyLjQzNzUgWiAiIGZpbGw9IiMwMDAwMDAiLz48dGV4dCBmaWxsPSIjMDAwMDAwIiBmb250LWZhbWlseT0ic2Fucy1zZXJpZiIgZm9udC1zaXplPSIxNCIgbGVuZ3RoQWRqdXN0PSJzcGFjaW5nIiB0ZXh0TGVuZ3RoPSIxMjAiIHg9IjQ2My4yNSIgeT0iMjQxLjc0MjIiPlRlcnJlc3RyaWFsQW5pbWFsPC90ZXh0PjxsaW5lIHN0eWxlPSJzdHJva2U6IzE4MTgxODtzdHJva2Utd2lkdGg6MC41OyIgeDE9IjM0OS41IiB4Mj0iNjY0LjUiIHkxPSIyNTIiIHkyPSIyNTIiLz48bGluZSBzdHlsZT0ic3Ryb2tlOiMxODE4MTg7c3Ryb2tlLXdpZHRoOjAuNTsiIHgxPSIzNDkuNSIgeDI9IjY2NC41IiB5MT0iMjYwIiB5Mj0iMjYwIi8+PGVsbGlwc2UgY3g9IjM1OS41IiBjeT0iMjcyLjk5MjIiIGZpbGw9IiM4NEJFODQiIHJ4PSIzIiByeT0iMyIgc3R5bGU9InN0cm9rZTojMDM4MDQ4O3N0cm9rZS13aWR0aDoxLjA7Ii8+PHRleHQgZmlsbD0iIzAwMDAwMCIgZm9udC1mYW1pbHk9InNhbnMtc2VyaWYiIGZvbnQtc2l6ZT0iMTQiIGxlbmd0aEFkanVzdD0ic3BhY2luZyIgdGV4dExlbmd0aD0iMTM2IiB4PSIzNjguNSIgeT0iMjc3LjIzNDQiPlRlcnJlc3RyaWFsQW5pbWFsKCk8L3RleHQ+PGVsbGlwc2UgY3g9IjM1OS41IiBjeT0iMjg3Ljk3NjYiIGZpbGw9IiM4NEJFODQiIHJ4PSIzIiByeT0iMyIgc3R5bGU9InN0cm9rZTojMDM4MDQ4O3N0cm9rZS13aWR0aDoxLjA7Ii8+PHRleHQgZmlsbD0iIzAwMDAwMCIgZm9udC1mYW1pbHk9InNhbnMtc2VyaWYiIGZvbnQtc2l6ZT0iMTQiIGxlbmd0aEFkanVzdD0ic3BhY2luZyIgdGV4dExlbmd0aD0iMjkxIiB4PSIzNjguNSIgeT0iMjkyLjIxODgiPlRlcnJlc3RyaWFsQW5pbWFsKG5hbWU6IFN0cmluZywgYWdlOiBpbnQpPC90ZXh0PjwvZz48IS0tY2xhc3MgQXF1YXRpY0FuaW1hbC0tPjxnIGlkPSJlbGVtX0FxdWF0aWNBbmltYWwiPjxyZWN0IGNvZGVMaW5lPSIxNiIgZmlsbD0iI0YxRjFGMSIgaGVpZ2h0PSI3Ny45Njg4IiBpZD0iQXF1YXRpY0FuaW1hbCIgcng9IjIuNSIgcnk9IjIuNSIgc3R5bGU9InN0cm9rZTojMTgxODE4O3N0cm9rZS13aWR0aDowLjU7IiB3aWR0aD0iMjg5IiB4PSIxMDEwLjUiIHk9IjIyMCIvPjxlbGxpcHNlIGN4PSIxMTA0Ljc1IiBjeT0iMjM2IiBmaWxsPSIjQUREMUIyIiByeD0iMTEiIHJ5PSIxMSIgc3R5bGU9InN0cm9rZTojMTgxODE4O3N0cm9rZS13aWR0aDoxLjA7Ii8+PHBhdGggZD0iTTExMDIuMzc1LDI0MC4yNSBMMTEwMi4zNzUsMjQyIEwxMTA3LjMxMjUsMjQyIEwxMTA3LjMxMjUsMjQwLjI1IEwxMTAyLjM3NSwyNDAuMjUgWiBNMTEwMy4wNjI1LDI0MC45Mzc1IFExMTAzLjA2MjUsMjQwLjkzNzUgMTEwMy4wNjI1LDIzMS43NSBMMTEwMS4zMTI1LDIzMS43NSBRMTEwMS4zMTI1LDIzMS43NSAxMTAxLjMxMjUsMjQwLjkzNzUgTDExMDMuMDYyNSwyNDAuOTM3NSBaIE0xMTA2LjYyNSwyNDAuOTM3NSBMMTEwOC4zNzUsMjQwLjkzNzUgUTExMDguMzc1LDI0MC45Mzc1IDExMDguMzc1LDIzOC4xMjUgTDExMDYuNjI1LDIzOC4xMjUgUTExMDYuNjI1LDIzOC4xMjUgMTEwNi42MjUsMjQwLjkzNzUgWiBNMTEwNi42MjUsMjMxLjc1IFExMTA2LjYyNSwyMzEuNzUgMTEwNi42MjUsMjM0LjU2MjUgTDExMDguMzc1LDIzNC41NjI1IFExMTA4LjM3NSwyMzQuNTYyNSAxMTA4LjM3NSwyMzEuNzUgTDExMDYuNjI1LDIzMS43NSBaIE0xMTAyLjM3NSwyMzIuNDM3NSBMMTEwNy4zMTI1LDIzMi40Mzc1IEwxMTA3LjMxMjUsMjMwLjY4NzUgTDExMDIuMzc1LDIzMC42ODc1IEwxMTAyLjM3NSwyMzIuNDM3NSBaICIgZmlsbD0iIzAwMDAwMCIvPjx0ZXh0IGZpbGw9IiMwMDAwMDAiIGZvbnQtZmFtaWx5PSJzYW5zLXNlcmlmIiBmb250LXNpemU9IjE0IiBsZW5ndGhBZGp1c3Q9InNwYWNpbmciIHRleHRMZW5ndGg9IjkyIiB4PSIxMTI1LjI1IiB5PSIyNDEuNzQyMiI+QXF1YXRpY0FuaW1hbDwvdGV4dD48bGluZSBzdHlsZT0ic3Ryb2tlOiMxODE4MTg7c3Ryb2tlLXdpZHRoOjAuNTsiIHgxPSIxMDExLjUiIHgyPSIxMjk4LjUiIHkxPSIyNTIiIHkyPSIyNTIiLz48bGluZSBzdHlsZT0ic3Ryb2tlOiMxODE4MTg7c3Ryb2tlLXdpZHRoOjAuNTsiIHgxPSIxMDExLjUiIHgyPSIxMjk4LjUiIHkxPSIyNjAiIHkyPSIyNjAiLz48ZWxsaXBzZSBjeD0iMTAyMS41IiBjeT0iMjcyLjk5MjIiIGZpbGw9IiM4NEJFODQiIHJ4PSIzIiByeT0iMyIgc3R5bGU9InN0cm9rZTojMDM4MDQ4O3N0cm9rZS13aWR0aDoxLjA7Ii8+PHRleHQgZmlsbD0iIzAwMDAwMCIgZm9udC1mYW1pbHk9InNhbnMtc2VyaWYiIGZvbnQtc2l6ZT0iMTQiIGxlbmd0aEFkanVzdD0ic3BhY2luZyIgdGV4dExlbmd0aD0iMTA4IiB4PSIxMDMwLjUiIHk9IjI3Ny4yMzQ0Ij5BcXVhdGljQW5pbWFsKCk8L3RleHQ+PGVsbGlwc2UgY3g9IjEwMjEuNSIgY3k9IjI4Ny45NzY2IiBmaWxsPSIjODRCRTg0IiByeD0iMyIgcnk9IjMiIHN0eWxlPSJzdHJva2U6IzAzODA0ODtzdHJva2Utd2lkdGg6MS4wOyIvPjx0ZXh0IGZpbGw9IiMwMDAwMDAiIGZvbnQtZmFtaWx5PSJzYW5zLXNlcmlmIiBmb250LXNpemU9IjE0IiBsZW5ndGhBZGp1c3Q9InNwYWNpbmciIHRleHRMZW5ndGg9IjI2MyIgeD0iMTAzMC41IiB5PSIyOTIuMjE4OCI+QXF1YXRpY0FuaW1hbChuYW1lOiBTdHJpbmcsIGFnZTogaW50KTwvdGV4dD48L2c+PCEtLWNsYXNzIEF2aWFuQW5pbWFsLS0+PGcgaWQ9ImVsZW1fQXZpYW5BbmltYWwiPjxyZWN0IGNvZGVMaW5lPSIyMSIgZmlsbD0iI0YxRjFGMSIgaGVpZ2h0PSI3Ny45Njg4IiBpZD0iQXZpYW5BbmltYWwiIHJ4PSIyLjUiIHJ5PSIyLjUiIHN0eWxlPSJzdHJva2U6IzE4MTgxODtzdHJva2Utd2lkdGg6MC41OyIgd2lkdGg9IjI3NSIgeD0iNzAwLjUiIHk9IjIyMCIvPjxlbGxpcHNlIGN4PSI3OTQuNzUiIGN5PSIyMzYiIGZpbGw9IiNBREQxQjIiIHJ4PSIxMSIgcnk9IjExIiBzdHlsZT0ic3Ryb2tlOiMxODE4MTg7c3Ryb2tlLXdpZHRoOjEuMDsiLz48cGF0aCBkPSJNNzkyLjM3NSwyNDAuMjUgTDc5Mi4zNzUsMjQyIEw3OTcuMzEyNSwyNDIgTDc5Ny4zMTI1LDI0MC4yNSBMNzkyLjM3NSwyNDAuMjUgWiBNNzkzLjA2MjUsMjQwLjkzNzUgUTc5My4wNjI1LDI0MC45Mzc1IDc5My4wNjI1LDIzMS43NSBMNzkxLjMxMjUsMjMxLjc1IFE3OTEuMzEyNSwyMzEuNzUgNzkxLjMxMjUsMjQwLjkzNzUgTDc5My4wNjI1LDI0MC45Mzc1IFogTTc5Ni42MjUsMjQwLjkzNzUgTDc5OC4zNzUsMjQwLjkzNzUgUTc5OC4zNzUsMjQwLjkzNzUgNzk4LjM3NSwyMzguMTI1IEw3OTYuNjI1LDIzOC4xMjUgUTc5Ni42MjUsMjM4LjEyNSA3OTYuNjI1LDI0MC45Mzc1IFogTTc5Ni42MjUsMjMxLjc1IFE3OTYuNjI1LDIzMS43NSA3OTYuNjI1LDIzNC41NjI1IEw3OTguMzc1LDIzNC41NjI1IFE3OTguMzc1LDIzNC41NjI1IDc5OC4zNzUsMjMxLjc1IEw3OTYuNjI1LDIzMS43NSBaIE03OTIuMzc1LDIzMi40Mzc1IEw3OTcuMzEyNSwyMzIuNDM3NSBMNzk3LjMxMjUsMjMwLjY4NzUgTDc5Mi4zNzUsMjMwLjY4NzUgTDc5Mi4zNzUsMjMyLjQzNzUgWiAiIGZpbGw9IiMwMDAwMDAiLz48dGV4dCBmaWxsPSIjMDAwMDAwIiBmb250LWZhbWlseT0ic2Fucy1zZXJpZiIgZm9udC1zaXplPSIxNCIgbGVuZ3RoQWRqdXN0PSJzcGFjaW5nIiB0ZXh0TGVuZ3RoPSI3OCIgeD0iODE1LjI1IiB5PSIyNDEuNzQyMiI+QXZpYW5BbmltYWw8L3RleHQ+PGxpbmUgc3R5bGU9InN0cm9rZTojMTgxODE4O3N0cm9rZS13aWR0aDowLjU7IiB4MT0iNzAxLjUiIHgyPSI5NzQuNSIgeTE9IjI1MiIgeTI9IjI1MiIvPjxsaW5lIHN0eWxlPSJzdHJva2U6IzE4MTgxODtzdHJva2Utd2lkdGg6MC41OyIgeDE9IjcwMS41IiB4Mj0iOTc0LjUiIHkxPSIyNjAiIHkyPSIyNjAiLz48ZWxsaXBzZSBjeD0iNzExLjUiIGN5PSIyNzIuOTkyMiIgZmlsbD0iIzg0QkU4NCIgcng9IjMiIHJ5PSIzIiBzdHlsZT0ic3Ryb2tlOiMwMzgwNDg7c3Ryb2tlLXdpZHRoOjEuMDsiLz48dGV4dCBmaWxsPSIjMDAwMDAwIiBmb250LWZhbWlseT0ic2Fucy1zZXJpZiIgZm9udC1zaXplPSIxNCIgbGVuZ3RoQWRqdXN0PSJzcGFjaW5nIiB0ZXh0TGVuZ3RoPSI5NCIgeD0iNzIwLjUiIHk9IjI3Ny4yMzQ0Ij5BdmlhbkFuaW1hbCgpPC90ZXh0PjxlbGxpcHNlIGN4PSI3MTEuNSIgY3k9IjI4Ny45NzY2IiBmaWxsPSIjODRCRTg0IiByeD0iMyIgcnk9IjMiIHN0eWxlPSJzdHJva2U6IzAzODA0ODtzdHJva2Utd2lkdGg6MS4wOyIvPjx0ZXh0IGZpbGw9IiMwMDAwMDAiIGZvbnQtZmFtaWx5PSJzYW5zLXNlcmlmIiBmb250LXNpemU9IjE0IiBsZW5ndGhBZGp1c3Q9InNwYWNpbmciIHRleHRMZW5ndGg9IjI0OSIgeD0iNzIwLjUiIHk9IjI5Mi4yMTg4Ij5BdmlhbkFuaW1hbChuYW1lOiBTdHJpbmcsIGFnZTogaW50KTwvdGV4dD48L2c+PCEtLWNsYXNzIEZvb2QtLT48ZyBpZD0iZWxlbV9Gb29kIj48cmVjdCBjb2RlTGluZT0iMjYiIGZpbGw9IiNGMUYxRjEiIGhlaWdodD0iNjIuOTg0NCIgaWQ9IkZvb2QiIHJ4PSIyLjUiIHJ5PSIyLjUiIHN0eWxlPSJzdHJva2U6IzE4MTgxODtzdHJva2Utd2lkdGg6MC41OyIgd2lkdGg9IjE0OCIgeD0iMTMzNCIgeT0iMjI3LjUiLz48ZWxsaXBzZSBjeD0iMTM4OS43NSIgY3k9IjI0My41IiBmaWxsPSIjQjRBN0U1IiByeD0iMTEiIHJ5PSIxMSIgc3R5bGU9InN0cm9rZTojMTgxODE4O3N0cm9rZS13aWR0aDoxLjA7Ii8+PHBhdGggZD0iTTEzOTIuODc1LDI0OS41IEwxMzkyLjg3NSwyNDcuNzUgTDEzOTAuNzUsMjQ3Ljc1IFExMzkwLjc1LDI0Ny43NSAxMzkwLjc1LDIzOS45Mzc1IEwxMzkyLjg3NSwyMzkuOTM3NSBMMTM5Mi44NzUsMjM4LjE4NzUgTDEzODYuODc1LDIzOC4xODc1IEwxMzg2Ljg3NSwyMzkuOTM3NSBMMTM4OSwyMzkuOTM3NSBRMTM4OSwyMzkuOTM3NSAxMzg5LDI0Ny43NSBMMTM4Ni44NzUsMjQ3Ljc1IEwxMzg2Ljg3NSwyNDkuNSBMMTM5Mi44NzUsMjQ5LjUgWiAiIGZpbGw9IiMwMDAwMDAiLz48dGV4dCBmaWxsPSIjMDAwMDAwIiBmb250LWZhbWlseT0ic2Fucy1zZXJpZiIgZm9udC1zaXplPSIxNCIgZm9udC1zdHlsZT0iaXRhbGljIiBsZW5ndGhBZGp1c3Q9InNwYWNpbmciIHRleHRMZW5ndGg9IjI4IiB4PSIxNDEwLjI1IiB5PSIyNDkuMjQyMiI+Rm9vZDwvdGV4dD48bGluZSBzdHlsZT0ic3Ryb2tlOiMxODE4MTg7c3Ryb2tlLXdpZHRoOjAuNTsiIHgxPSIxMzM1IiB4Mj0iMTQ4MSIgeTE9IjI1OS41IiB5Mj0iMjU5LjUiLz48bGluZSBzdHlsZT0ic3Ryb2tlOiMxODE4MTg7c3Ryb2tlLXdpZHRoOjAuNTsiIHgxPSIxMzM1IiB4Mj0iMTQ4MSIgeTE9IjI2Ny41IiB5Mj0iMjY3LjUiLz48ZWxsaXBzZSBjeD0iMTM0NSIgY3k9IjI4MC40OTIyIiBmaWxsPSIjODRCRTg0IiByeD0iMyIgcnk9IjMiIHN0eWxlPSJzdHJva2U6IzAzODA0ODtzdHJva2Utd2lkdGg6MS4wOyIvPjx0ZXh0IGZpbGw9IiMwMDAwMDAiIGZvbnQtZmFtaWx5PSJzYW5zLXNlcmlmIiBmb250LXNpemU9IjE0IiBsZW5ndGhBZGp1c3Q9InNwYWNpbmciIHRleHRMZW5ndGg9IjEyMiIgeD0iMTM1NCIgeT0iMjg0LjczNDQiPmdldE5hbWUoKTogU3RyaW5nPC90ZXh0PjwvZz48IS0tY2xhc3MgTWFtbWFsLS0+PGcgaWQ9ImVsZW1fTWFtbWFsIj48cmVjdCBjb2RlTGluZT0iMzAiIGZpbGw9IiNGMUYxRjEiIGhlaWdodD0iNjIuOTg0NCIgaWQ9Ik1hbW1hbCIgcng9IjIuNSIgcnk9IjIuNSIgc3R5bGU9InN0cm9rZTojMTgxODE4O3N0cm9rZS13aWR0aDowLjU7IiB3aWR0aD0iMTYxIiB4PSIxNTIuNSIgeT0iMjI3LjUiLz48ZWxsaXBzZSBjeD0iMjA2Ljc1IiBjeT0iMjQzLjUiIGZpbGw9IiNBREQxQjIiIHJ4PSIxMSIgcnk9IjExIiBzdHlsZT0ic3Ryb2tlOiMxODE4MTg7c3Ryb2tlLXdpZHRoOjEuMDsiLz48cGF0aCBkPSJNMjA0LjM3NSwyNDcuNzUgTDIwNC4zNzUsMjQ5LjUgTDIwOS4zMTI1LDI0OS41IEwyMDkuMzEyNSwyNDcuNzUgTDIwNC4zNzUsMjQ3Ljc1IFogTTIwNS4wNjI1LDI0OC40Mzc1IFEyMDUuMDYyNSwyNDguNDM3NSAyMDUuMDYyNSwyMzkuMjUgTDIwMy4zMTI1LDIzOS4yNSBRMjAzLjMxMjUsMjM5LjI1IDIwMy4zMTI1LDI0OC40Mzc1IEwyMDUuMDYyNSwyNDguNDM3NSBaIE0yMDguNjI1LDI0OC40Mzc1IEwyMTAuMzc1LDI0OC40Mzc1IFEyMTAuMzc1LDI0OC40Mzc1IDIxMC4zNzUsMjQ1LjYyNSBMMjA4LjYyNSwyNDUuNjI1IFEyMDguNjI1LDI0NS42MjUgMjA4LjYyNSwyNDguNDM3NSBaIE0yMDguNjI1LDIzOS4yNSBRMjA4LjYyNSwyMzkuMjUgMjA4LjYyNSwyNDIuMDYyNSBMMjEwLjM3NSwyNDIuMDYyNSBRMjEwLjM3NSwyNDIuMDYyNSAyMTAuMzc1LDIzOS4yNSBMMjA4LjYyNSwyMzkuMjUgWiBNMjA0LjM3NSwyMzkuOTM3NSBMMjA5LjMxMjUsMjM5LjkzNzUgTDIwOS4zMTI1LDIzOC4xODc1IEwyMDQuMzc1LDIzOC4xODc1IEwyMDQuMzc1LDIzOS45Mzc1IFogIiBmaWxsPSIjMDAwMDAwIi8+PHRleHQgZmlsbD0iIzAwMDAwMCIgZm9udC1mYW1pbHk9InNhbnMtc2VyaWYiIGZvbnQtc2l6ZT0iMTQiIGxlbmd0aEFkanVzdD0ic3BhY2luZyIgdGV4dExlbmd0aD0iNDQiIHg9IjIyNy4yNSIgeT0iMjQ5LjI0MjIiPk1hbW1hbDwvdGV4dD48bGluZSBzdHlsZT0ic3Ryb2tlOiMxODE4MTg7c3Ryb2tlLXdpZHRoOjAuNTsiIHgxPSIxNTMuNSIgeDI9IjMxMi41IiB5MT0iMjU5LjUiIHkyPSIyNTkuNSIvPjxsaW5lIHN0eWxlPSJzdHJva2U6IzE4MTgxODtzdHJva2Utd2lkdGg6MC41OyIgeDE9IjE1My41IiB4Mj0iMzEyLjUiIHkxPSIyNjcuNSIgeTI9IjI2Ny41Ii8+PGVsbGlwc2UgY3g9IjE2My41IiBjeT0iMjgwLjQ5MjIiIGZpbGw9IiM4NEJFODQiIHJ4PSIzIiByeT0iMyIgc3R5bGU9InN0cm9rZTojMDM4MDQ4O3N0cm9rZS13aWR0aDoxLjA7Ii8+PHRleHQgZmlsbD0iIzAwMDAwMCIgZm9udC1mYW1pbHk9InNhbnMtc2VyaWYiIGZvbnQtc2l6ZT0iMTQiIGZvbnQtc3R5bGU9Iml0YWxpYyIgbGVuZ3RoQWRqdXN0PSJzcGFjaW5nIiB0ZXh0TGVuZ3RoPSIxMzUiIHg9IjE3Mi41IiB5PSIyODQuNzM0NCI+cmVwcm9kdWNlKCk6IFN0cmluZzwvdGV4dD48L2c+PCEtLWNsYXNzIE92aXBhcm91cy0tPjxnIGlkPSJlbGVtX092aXBhcm91cyI+PHJlY3QgY29kZUxpbmU9IjM0IiBmaWxsPSIjRjFGMUYxIiBoZWlnaHQ9IjYyLjk4NDQiIGlkPSJPdmlwYXJvdXMiIHJ4PSIyLjUiIHJ5PSIyLjUiIHN0eWxlPSJzdHJva2U6IzE4MTgxODtzdHJva2Utd2lkdGg6MC41OyIgd2lkdGg9IjE2MSIgeD0iMTUxNy41IiB5PSIyMjcuNSIvPjxlbGxpcHNlIGN4PSIxNTYyLjI1IiBjeT0iMjQzLjUiIGZpbGw9IiNBREQxQjIiIHJ4PSIxMSIgcnk9IjExIiBzdHlsZT0ic3Ryb2tlOiMxODE4MTg7c3Ryb2tlLXdpZHRoOjEuMDsiLz48cGF0aCBkPSJNMTU1OS44NzUsMjQ3Ljc1IEwxNTU5Ljg3NSwyNDkuNSBMMTU2NC44MTI1LDI0OS41IEwxNTY0LjgxMjUsMjQ3Ljc1IEwxNTU5Ljg3NSwyNDcuNzUgWiBNMTU2MC41NjI1LDI0OC40Mzc1IFExNTYwLjU2MjUsMjQ4LjQzNzUgMTU2MC41NjI1LDIzOS4yNSBMMTU1OC44MTI1LDIzOS4yNSBRMTU1OC44MTI1LDIzOS4yNSAxNTU4LjgxMjUsMjQ4LjQzNzUgTDE1NjAuNTYyNSwyNDguNDM3NSBaIE0xNTY0LjEyNSwyNDguNDM3NSBMMTU2NS44NzUsMjQ4LjQzNzUgUTE1NjUuODc1LDI0OC40Mzc1IDE1NjUuODc1LDI0NS42MjUgTDE1NjQuMTI1LDI0NS42MjUgUTE1NjQuMTI1LDI0NS42MjUgMTU2NC4xMjUsMjQ4LjQzNzUgWiBNMTU2NC4xMjUsMjM5LjI1IFExNTY0LjEyNSwyMzkuMjUgMTU2NC4xMjUsMjQyLjA2MjUgTDE1NjUuODc1LDI0Mi4wNjI1IFExNTY1Ljg3NSwyNDIuMDYyNSAxNTY1Ljg3NSwyMzkuMjUgTDE1NjQuMTI1LDIzOS4yNSBaIE0xNTU5Ljg3NSwyMzkuOTM3NSBMMTU2NC44MTI1LDIzOS45Mzc1IEwxNTY0LjgxMjUsMjM4LjE4NzUgTDE1NTkuODc1LDIzOC4xODc1IEwxNTU5Ljg3NSwyMzkuOTM3NSBaICIgZmlsbD0iIzAwMDAwMCIvPjx0ZXh0IGZpbGw9IiMwMDAwMDAiIGZvbnQtZmFtaWx5PSJzYW5zLXNlcmlmIiBmb250LXNpemU9IjE0IiBsZW5ndGhBZGp1c3Q9InNwYWNpbmciIHRleHRMZW5ndGg9IjYzIiB4PSIxNTgyLjc1IiB5PSIyNDkuMjQyMiI+T3ZpcGFyb3VzPC90ZXh0PjxsaW5lIHN0eWxlPSJzdHJva2U6IzE4MTgxODtzdHJva2Utd2lkdGg6MC41OyIgeDE9IjE1MTguNSIgeDI9IjE2NzcuNSIgeTE9IjI1OS41IiB5Mj0iMjU5LjUiLz48bGluZSBzdHlsZT0ic3Ryb2tlOiMxODE4MTg7c3Ryb2tlLXdpZHRoOjAuNTsiIHgxPSIxNTE4LjUiIHgyPSIxNjc3LjUiIHkxPSIyNjcuNSIgeTI9IjI2Ny41Ii8+PGVsbGlwc2UgY3g9IjE1MjguNSIgY3k9IjI4MC40OTIyIiBmaWxsPSIjODRCRTg0IiByeD0iMyIgcnk9IjMiIHN0eWxlPSJzdHJva2U6IzAzODA0ODtzdHJva2Utd2lkdGg6MS4wOyIvPjx0ZXh0IGZpbGw9IiMwMDAwMDAiIGZvbnQtZmFtaWx5PSJzYW5zLXNlcmlmIiBmb250LXNpemU9IjE0IiBmb250LXN0eWxlPSJpdGFsaWMiIGxlbmd0aEFkanVzdD0ic3BhY2luZyIgdGV4dExlbmd0aD0iMTM1IiB4PSIxNTM3LjUiIHk9IjI4NC43MzQ0Ij5yZXByb2R1Y2UoKTogU3RyaW5nPC90ZXh0PjwvZz48IS0tY2xhc3MgRG9nLS0+PGcgaWQ9ImVsZW1fRG9nIj48cmVjdCBjb2RlTGluZT0iMzgiIGZpbGw9IiNGMUYxRjEiIGhlaWdodD0iOTIuOTUzMSIgaWQ9IkRvZyIgcng9IjIuNSIgcnk9IjIuNSIgc3R5bGU9InN0cm9rZTojMTgxODE4O3N0cm9rZS13aWR0aDowLjU7IiB3aWR0aD0iMjE4IiB4PSI3IiB5PSIyOS41Ii8+PGVsbGlwc2UgY3g9IjEwMS4yNSIgY3k9IjQ1LjUiIGZpbGw9IiNBREQxQjIiIHJ4PSIxMSIgcnk9IjExIiBzdHlsZT0ic3Ryb2tlOiMxODE4MTg7c3Ryb2tlLXdpZHRoOjEuMDsiLz48cGF0aCBkPSJNOTguODc1LDQ5Ljc1IEw5OC44NzUsNTEuNSBMMTAzLjgxMjUsNTEuNSBMMTAzLjgxMjUsNDkuNzUgTDk4Ljg3NSw0OS43NSBaIE05OS41NjI1LDUwLjQzNzUgUTk5LjU2MjUsNTAuNDM3NSA5OS41NjI1LDQxLjI1IEw5Ny44MTI1LDQxLjI1IFE5Ny44MTI1LDQxLjI1IDk3LjgxMjUsNTAuNDM3NSBMOTkuNTYyNSw1MC40Mzc1IFogTTEwMy4xMjUsNTAuNDM3NSBMMTA0Ljg3NSw1MC40Mzc1IFExMDQuODc1LDUwLjQzNzUgMTA0Ljg3NSw0Ny42MjUgTDEwMy4xMjUsNDcuNjI1IFExMDMuMTI1LDQ3LjYyNSAxMDMuMTI1LDUwLjQzNzUgWiBNMTAzLjEyNSw0MS4yNSBRMTAzLjEyNSw0MS4yNSAxMDMuMTI1LDQ0LjA2MjUgTDEwNC44NzUsNDQuMDYyNSBRMTA0Ljg3NSw0NC4wNjI1IDEwNC44NzUsNDEuMjUgTDEwMy4xMjUsNDEuMjUgWiBNOTguODc1LDQxLjkzNzUgTDEwMy44MTI1LDQxLjkzNzUgTDEwMy44MTI1LDQwLjE4NzUgTDk4Ljg3NSw0MC4xODc1IEw5OC44NzUsNDEuOTM3NSBaICIgZmlsbD0iIzAwMDAwMCIvPjx0ZXh0IGZpbGw9IiMwMDAwMDAiIGZvbnQtZmFtaWx5PSJzYW5zLXNlcmlmIiBmb250LXNpemU9IjE0IiBsZW5ndGhBZGp1c3Q9InNwYWNpbmciIHRleHRMZW5ndGg9IjIxIiB4PSIxMjEuNzUiIHk9IjUxLjI0MjIiPkRvZzwvdGV4dD48bGluZSBzdHlsZT0ic3Ryb2tlOiMxODE4MTg7c3Ryb2tlLXdpZHRoOjAuNTsiIHgxPSI4IiB4Mj0iMjI0IiB5MT0iNjEuNSIgeTI9IjYxLjUiLz48bGluZSBzdHlsZT0ic3Ryb2tlOiMxODE4MTg7c3Ryb2tlLXdpZHRoOjAuNTsiIHgxPSI4IiB4Mj0iMjI0IiB5MT0iNjkuNSIgeTI9IjY5LjUiLz48ZWxsaXBzZSBjeD0iMTgiIGN5PSI4Mi40OTIyIiBmaWxsPSIjODRCRTg0IiByeD0iMyIgcnk9IjMiIHN0eWxlPSJzdHJva2U6IzAzODA0ODtzdHJva2Utd2lkdGg6MS4wOyIvPjx0ZXh0IGZpbGw9IiMwMDAwMDAiIGZvbnQtZmFtaWx5PSJzYW5zLXNlcmlmIiBmb250LXNpemU9IjE0IiBsZW5ndGhBZGp1c3Q9InNwYWNpbmciIHRleHRMZW5ndGg9IjM3IiB4PSIyNyIgeT0iODYuNzM0NCI+RG9nKCk8L3RleHQ+PGVsbGlwc2UgY3g9IjE4IiBjeT0iOTcuNDc2NiIgZmlsbD0iIzg0QkU4NCIgcng9IjMiIHJ5PSIzIiBzdHlsZT0ic3Ryb2tlOiMwMzgwNDg7c3Ryb2tlLXdpZHRoOjEuMDsiLz48dGV4dCBmaWxsPSIjMDAwMDAwIiBmb250LWZhbWlseT0ic2Fucy1zZXJpZiIgZm9udC1zaXplPSIxNCIgbGVuZ3RoQWRqdXN0PSJzcGFjaW5nIiB0ZXh0TGVuZ3RoPSIxOTIiIHg9IjI3IiB5PSIxMDEuNzE4OCI+RG9nKG5hbWU6IFN0cmluZywgYWdlOiBpbnQpPC90ZXh0PjxlbGxpcHNlIGN4PSIxOCIgY3k9IjExMi40NjA5IiBmaWxsPSIjODRCRTg0IiByeD0iMyIgcnk9IjMiIHN0eWxlPSJzdHJva2U6IzAzODA0ODtzdHJva2Utd2lkdGg6MS4wOyIvPjx0ZXh0IGZpbGw9IiMwMDAwMDAiIGZvbnQtZmFtaWx5PSJzYW5zLXNlcmlmIiBmb250LXNpemU9IjE0IiBsZW5ndGhBZGp1c3Q9InNwYWNpbmciIHRleHRMZW5ndGg9IjEzNSIgeD0iMjciIHk9IjExNi43MDMxIj5yZXByb2R1Y2UoKTogU3RyaW5nPC90ZXh0PjwvZz48IS0tY2xhc3MgQ2F0LS0+PGcgaWQ9ImVsZW1fQ2F0Ij48cmVjdCBjb2RlTGluZT0iNDQiIGZpbGw9IiNGMUYxRjEiIGhlaWdodD0iOTIuOTUzMSIgaWQ9IkNhdCIgcng9IjIuNSIgcnk9IjIuNSIgc3R5bGU9InN0cm9rZTojMTgxODE4O3N0cm9rZS13aWR0aDowLjU7IiB3aWR0aD0iMjE4IiB4PSIyNjAiIHk9IjI5LjUiLz48ZWxsaXBzZSBjeD0iMzU0LjI1IiBjeT0iNDUuNSIgZmlsbD0iI0FERDFCMiIgcng9IjExIiByeT0iMTEiIHN0eWxlPSJzdHJva2U6IzE4MTgxODtzdHJva2Utd2lkdGg6MS4wOyIvPjxwYXRoIGQ9Ik0zNTEuODc1LDQ5Ljc1IEwzNTEuODc1LDUxLjUgTDM1Ni44MTI1LDUxLjUgTDM1Ni44MTI1LDQ5Ljc1IEwzNTEuODc1LDQ5Ljc1IFogTTM1Mi41NjI1LDUwLjQzNzUgUTM1Mi41NjI1LDUwLjQzNzUgMzUyLjU2MjUsNDEuMjUgTDM1MC44MTI1LDQxLjI1IFEzNTAuODEyNSw0MS4yNSAzNTAuODEyNSw1MC40Mzc1IEwzNTIuNTYyNSw1MC40Mzc1IFogTTM1Ni4xMjUsNTAuNDM3NSBMMzU3Ljg3NSw1MC40Mzc1IFEzNTcuODc1LDUwLjQzNzUgMzU3Ljg3NSw0Ny42MjUgTDM1Ni4xMjUsNDcuNjI1IFEzNTYuMTI1LDQ3LjYyNSAzNTYuMTI1LDUwLjQzNzUgWiBNMzU2LjEyNSw0MS4yNSBRMzU2LjEyNSw0MS4yNSAzNTYuMTI1LDQ0LjA2MjUgTDM1Ny44NzUsNDQuMDYyNSBRMzU3Ljg3NSw0NC4wNjI1IDM1Ny44NzUsNDEuMjUgTDM1Ni4xMjUsNDEuMjUgWiBNMzUxLjg3NSw0MS45Mzc1IEwzNTYuODEyNSw0MS45Mzc1IEwzNTYuODEyNSw0MC4xODc1IEwzNTEuODc1LDQwLjE4NzUgTDM1MS44NzUsNDEuOTM3NSBaICIgZmlsbD0iIzAwMDAwMCIvPjx0ZXh0IGZpbGw9IiMwMDAwMDAiIGZvbnQtZmFtaWx5PSJzYW5zLXNlcmlmIiBmb250LXNpemU9IjE0IiBsZW5ndGhBZGp1c3Q9InNwYWNpbmciIHRleHRMZW5ndGg9IjIxIiB4PSIzNzQuNzUiIHk9IjUxLjI0MjIiPkNhdDwvdGV4dD48bGluZSBzdHlsZT0ic3Ryb2tlOiMxODE4MTg7c3Ryb2tlLXdpZHRoOjAuNTsiIHgxPSIyNjEiIHgyPSI0NzciIHkxPSI2MS41IiB5Mj0iNjEuNSIvPjxsaW5lIHN0eWxlPSJzdHJva2U6IzE4MTgxODtzdHJva2Utd2lkdGg6MC41OyIgeDE9IjI2MSIgeDI9IjQ3NyIgeTE9IjY5LjUiIHkyPSI2OS41Ii8+PGVsbGlwc2UgY3g9IjI3MSIgY3k9IjgyLjQ5MjIiIGZpbGw9IiM4NEJFODQiIHJ4PSIzIiByeT0iMyIgc3R5bGU9InN0cm9rZTojMDM4MDQ4O3N0cm9rZS13aWR0aDoxLjA7Ii8+PHRleHQgZmlsbD0iIzAwMDAwMCIgZm9udC1mYW1pbHk9InNhbnMtc2VyaWYiIGZvbnQtc2l6ZT0iMTQiIGxlbmd0aEFkanVzdD0ic3BhY2luZyIgdGV4dExlbmd0aD0iMzciIHg9IjI4MCIgeT0iODYuNzM0NCI+Q2F0KCk8L3RleHQ+PGVsbGlwc2UgY3g9IjI3MSIgY3k9Ijk3LjQ3NjYiIGZpbGw9IiM4NEJFODQiIHJ4PSIzIiByeT0iMyIgc3R5bGU9InN0cm9rZTojMDM4MDQ4O3N0cm9rZS13aWR0aDoxLjA7Ii8+PHRleHQgZmlsbD0iIzAwMDAwMCIgZm9udC1mYW1pbHk9InNhbnMtc2VyaWYiIGZvbnQtc2l6ZT0iMTQiIGxlbmd0aEFkanVzdD0ic3BhY2luZyIgdGV4dExlbmd0aD0iMTkyIiB4PSIyODAiIHk9IjEwMS43MTg4Ij5DYXQobmFtZTogU3RyaW5nLCBhZ2U6IGludCk8L3RleHQ+PGVsbGlwc2UgY3g9IjI3MSIgY3k9IjExMi40NjA5IiBmaWxsPSIjODRCRTg0IiByeD0iMyIgcnk9IjMiIHN0eWxlPSJzdHJva2U6IzAzODA0ODtzdHJva2Utd2lkdGg6MS4wOyIvPjx0ZXh0IGZpbGw9IiMwMDAwMDAiIGZvbnQtZmFtaWx5PSJzYW5zLXNlcmlmIiBmb250LXNpemU9IjE0IiBsZW5ndGhBZGp1c3Q9InNwYWNpbmciIHRleHRMZW5ndGg9IjEzNSIgeD0iMjgwIiB5PSIxMTYuNzAzMSI+cmVwcm9kdWNlKCk6IFN0cmluZzwvdGV4dD48L2c+PCEtLWNsYXNzIFNoYXJrLS0+PGcgaWQ9ImVsZW1fU2hhcmsiPjxyZWN0IGNvZGVMaW5lPSI1MCIgZmlsbD0iI0YxRjFGMSIgaGVpZ2h0PSI5Mi45NTMxIiBpZD0iU2hhcmsiIHJ4PSIyLjUiIHJ5PSIyLjUiIHN0eWxlPSJzdHJva2U6IzE4MTgxODtzdHJva2Utd2lkdGg6MC41OyIgd2lkdGg9IjIzMiIgeD0iMTQyNiIgeT0iMjkuNSIvPjxlbGxpcHNlIGN4PSIxNTIwLjI1IiBjeT0iNDUuNSIgZmlsbD0iI0FERDFCMiIgcng9IjExIiByeT0iMTEiIHN0eWxlPSJzdHJva2U6IzE4MTgxODtzdHJva2Utd2lkdGg6MS4wOyIvPjxwYXRoIGQ9Ik0xNTE3Ljg3NSw0OS43NSBMMTUxNy44NzUsNTEuNSBMMTUyMi44MTI1LDUxLjUgTDE1MjIuODEyNSw0OS43NSBMMTUxNy44NzUsNDkuNzUgWiBNMTUxOC41NjI1LDUwLjQzNzUgUTE1MTguNTYyNSw1MC40Mzc1IDE1MTguNTYyNSw0MS4yNSBMMTUxNi44MTI1LDQxLjI1IFExNTE2LjgxMjUsNDEuMjUgMTUxNi44MTI1LDUwLjQzNzUgTDE1MTguNTYyNSw1MC40Mzc1IFogTTE1MjIuMTI1LDUwLjQzNzUgTDE1MjMuODc1LDUwLjQzNzUgUTE1MjMuODc1LDUwLjQzNzUgMTUyMy44NzUsNDcuNjI1IEwxNTIyLjEyNSw0Ny42MjUgUTE1MjIuMTI1LDQ3LjYyNSAxNTIyLjEyNSw1MC40Mzc1IFogTTE1MjIuMTI1LDQxLjI1IFExNTIyLjEyNSw0MS4yNSAxNTIyLjEyNSw0NC4wNjI1IEwxNTIzLjg3NSw0NC4wNjI1IFExNTIzLjg3NSw0NC4wNjI1IDE1MjMuODc1LDQxLjI1IEwxNTIyLjEyNSw0MS4yNSBaIE0xNTE3Ljg3NSw0MS45Mzc1IEwxNTIyLjgxMjUsNDEuOTM3NSBMMTUyMi44MTI1LDQwLjE4NzUgTDE1MTcuODc1LDQwLjE4NzUgTDE1MTcuODc1LDQxLjkzNzUgWiAiIGZpbGw9IiMwMDAwMDAiLz48dGV4dCBmaWxsPSIjMDAwMDAwIiBmb250LWZhbWlseT0ic2Fucy1zZXJpZiIgZm9udC1zaXplPSIxNCIgbGVuZ3RoQWRqdXN0PSJzcGFjaW5nIiB0ZXh0TGVuZ3RoPSIzNSIgeD0iMTU0MC43NSIgeT0iNTEuMjQyMiI+U2hhcms8L3RleHQ+PGxpbmUgc3R5bGU9InN0cm9rZTojMTgxODE4O3N0cm9rZS13aWR0aDowLjU7IiB4MT0iMTQyNyIgeDI9IjE2NTciIHkxPSI2MS41IiB5Mj0iNjEuNSIvPjxsaW5lIHN0eWxlPSJzdHJva2U6IzE4MTgxODtzdHJva2Utd2lkdGg6MC41OyIgeDE9IjE0MjciIHgyPSIxNjU3IiB5MT0iNjkuNSIgeTI9IjY5LjUiLz48ZWxsaXBzZSBjeD0iMTQzNyIgY3k9IjgyLjQ5MjIiIGZpbGw9IiM4NEJFODQiIHJ4PSIzIiByeT0iMyIgc3R5bGU9InN0cm9rZTojMDM4MDQ4O3N0cm9rZS13aWR0aDoxLjA7Ii8+PHRleHQgZmlsbD0iIzAwMDAwMCIgZm9udC1mYW1pbHk9InNhbnMtc2VyaWYiIGZvbnQtc2l6ZT0iMTQiIGxlbmd0aEFkanVzdD0ic3BhY2luZyIgdGV4dExlbmd0aD0iNTEiIHg9IjE0NDYiIHk9Ijg2LjczNDQiPlNoYXJrKCk8L3RleHQ+PGVsbGlwc2UgY3g9IjE0MzciIGN5PSI5Ny40NzY2IiBmaWxsPSIjODRCRTg0IiByeD0iMyIgcnk9IjMiIHN0eWxlPSJzdHJva2U6IzAzODA0ODtzdHJva2Utd2lkdGg6MS4wOyIvPjx0ZXh0IGZpbGw9IiMwMDAwMDAiIGZvbnQtZmFtaWx5PSJzYW5zLXNlcmlmIiBmb250LXNpemU9IjE0IiBsZW5ndGhBZGp1c3Q9InNwYWNpbmciIHRleHRMZW5ndGg9IjIwNiIgeD0iMTQ0NiIgeT0iMTAxLjcxODgiPlNoYXJrKG5hbWU6IFN0cmluZywgYWdlOiBpbnQpPC90ZXh0PjxlbGxpcHNlIGN4PSIxNDM3IiBjeT0iMTEyLjQ2MDkiIGZpbGw9IiM4NEJFODQiIHJ4PSIzIiByeT0iMyIgc3R5bGU9InN0cm9rZTojMDM4MDQ4O3N0cm9rZS13aWR0aDoxLjA7Ii8+PHRleHQgZmlsbD0iIzAwMDAwMCIgZm9udC1mYW1pbHk9InNhbnMtc2VyaWYiIGZvbnQtc2l6ZT0iMTQiIGxlbmd0aEFkanVzdD0ic3BhY2luZyIgdGV4dExlbmd0aD0iMTM1IiB4PSIxNDQ2IiB5PSIxMTYuNzAzMSI+cmVwcm9kdWNlKCk6IFN0cmluZzwvdGV4dD48L2c+PCEtLWNsYXNzIFdoYWxlLS0+PGcgaWQ9ImVsZW1fV2hhbGUiPjxyZWN0IGNvZGVMaW5lPSI1NiIgZmlsbD0iI0YxRjFGMSIgaGVpZ2h0PSI5Mi45NTMxIiBpZD0iV2hhbGUiIHJ4PSIyLjUiIHJ5PSIyLjUiIHN0eWxlPSJzdHJva2U6IzE4MTgxODtzdHJva2Utd2lkdGg6MC41OyIgd2lkdGg9IjIzMiIgeD0iNzY4IiB5PSIyOS41Ii8+PGVsbGlwc2UgY3g9Ijg2Mi4yNSIgY3k9IjQ1LjUiIGZpbGw9IiNBREQxQjIiIHJ4PSIxMSIgcnk9IjExIiBzdHlsZT0ic3Ryb2tlOiMxODE4MTg7c3Ryb2tlLXdpZHRoOjEuMDsiLz48cGF0aCBkPSJNODU5Ljg3NSw0OS43NSBMODU5Ljg3NSw1MS41IEw4NjQuODEyNSw1MS41IEw4NjQuODEyNSw0OS43NSBMODU5Ljg3NSw0OS43NSBaIE04NjAuNTYyNSw1MC40Mzc1IFE4NjAuNTYyNSw1MC40Mzc1IDg2MC41NjI1LDQxLjI1IEw4NTguODEyNSw0MS4yNSBRODU4LjgxMjUsNDEuMjUgODU4LjgxMjUsNTAuNDM3NSBMODYwLjU2MjUsNTAuNDM3NSBaIE04NjQuMTI1LDUwLjQzNzUgTDg2NS44NzUsNTAuNDM3NSBRODY1Ljg3NSw1MC40Mzc1IDg2NS44NzUsNDcuNjI1IEw4NjQuMTI1LDQ3LjYyNSBRODY0LjEyNSw0Ny42MjUgODY0LjEyNSw1MC40Mzc1IFogTTg2NC4xMjUsNDEuMjUgUTg2NC4xMjUsNDEuMjUgODY0LjEyNSw0NC4wNjI1IEw4NjUuODc1LDQ0LjA2MjUgUTg2NS44NzUsNDQuMDYyNSA4NjUuODc1LDQxLjI1IEw4NjQuMTI1LDQxLjI1IFogTTg1OS44NzUsNDEuOTM3NSBMODY0LjgxMjUsNDEuOTM3NSBMODY0LjgxMjUsNDAuMTg3NSBMODU5Ljg3NSw0MC4xODc1IEw4NTkuODc1LDQxLjkzNzUgWiAiIGZpbGw9IiMwMDAwMDAiLz48dGV4dCBmaWxsPSIjMDAwMDAwIiBmb250LWZhbWlseT0ic2Fucy1zZXJpZiIgZm9udC1zaXplPSIxNCIgbGVuZ3RoQWRqdXN0PSJzcGFjaW5nIiB0ZXh0TGVuZ3RoPSIzNSIgeD0iODgyLjc1IiB5PSI1MS4yNDIyIj5XaGFsZTwvdGV4dD48bGluZSBzdHlsZT0ic3Ryb2tlOiMxODE4MTg7c3Ryb2tlLXdpZHRoOjAuNTsiIHgxPSI3NjkiIHgyPSI5OTkiIHkxPSI2MS41IiB5Mj0iNjEuNSIvPjxsaW5lIHN0eWxlPSJzdHJva2U6IzE4MTgxODtzdHJva2Utd2lkdGg6MC41OyIgeDE9Ijc2OSIgeDI9Ijk5OSIgeTE9IjY5LjUiIHkyPSI2OS41Ii8+PGVsbGlwc2UgY3g9Ijc3OSIgY3k9IjgyLjQ5MjIiIGZpbGw9IiM4NEJFODQiIHJ4PSIzIiByeT0iMyIgc3R5bGU9InN0cm9rZTojMDM4MDQ4O3N0cm9rZS13aWR0aDoxLjA7Ii8+PHRleHQgZmlsbD0iIzAwMDAwMCIgZm9udC1mYW1pbHk9InNhbnMtc2VyaWYiIGZvbnQtc2l6ZT0iMTQiIGxlbmd0aEFkanVzdD0ic3BhY2luZyIgdGV4dExlbmd0aD0iNTEiIHg9Ijc4OCIgeT0iODYuNzM0NCI+V2hhbGUoKTwvdGV4dD48ZWxsaXBzZSBjeD0iNzc5IiBjeT0iOTcuNDc2NiIgZmlsbD0iIzg0QkU4NCIgcng9IjMiIHJ5PSIzIiBzdHlsZT0ic3Ryb2tlOiMwMzgwNDg7c3Ryb2tlLXdpZHRoOjEuMDsiLz48dGV4dCBmaWxsPSIjMDAwMDAwIiBmb250LWZhbWlseT0ic2Fucy1zZXJpZiIgZm9udC1zaXplPSIxNCIgbGVuZ3RoQWRqdXN0PSJzcGFjaW5nIiB0ZXh0TGVuZ3RoPSIyMDYiIHg9Ijc4OCIgeT0iMTAxLjcxODgiPldoYWxlKG5hbWU6IFN0cmluZywgYWdlOiBpbnQpPC90ZXh0PjxlbGxpcHNlIGN4PSI3NzkiIGN5PSIxMTIuNDYwOSIgZmlsbD0iIzg0QkU4NCIgcng9IjMiIHJ5PSIzIiBzdHlsZT0ic3Ryb2tlOiMwMzgwNDg7c3Ryb2tlLXdpZHRoOjEuMDsiLz48dGV4dCBmaWxsPSIjMDAwMDAwIiBmb250LWZhbWlseT0ic2Fucy1zZXJpZiIgZm9udC1zaXplPSIxNCIgbGVuZ3RoQWRqdXN0PSJzcGFjaW5nIiB0ZXh0TGVuZ3RoPSIxMzUiIHg9Ijc4OCIgeT0iMTE2LjcwMzEiPnJlcHJvZHVjZSgpOiBTdHJpbmc8L3RleHQ+PC9nPjwhLS1jbGFzcyBPd2wtLT48ZyBpZD0iZWxlbV9Pd2wiPjxyZWN0IGNvZGVMaW5lPSI2MiIgZmlsbD0iI0YxRjFGMSIgaGVpZ2h0PSI5Mi45NTMxIiBpZD0iT3dsIiByeD0iMi41IiByeT0iMi41IiBzdHlsZT0ic3Ryb2tlOiMxODE4MTg7c3Ryb2tlLXdpZHRoOjAuNTsiIHdpZHRoPSIyMTkiIHg9IjUxMy41IiB5PSIyOS41Ii8+PGVsbGlwc2UgY3g9IjYwNy43NSIgY3k9IjQ1LjUiIGZpbGw9IiNBREQxQjIiIHJ4PSIxMSIgcnk9IjExIiBzdHlsZT0ic3Ryb2tlOiMxODE4MTg7c3Ryb2tlLXdpZHRoOjEuMDsiLz48cGF0aCBkPSJNNjA1LjM3NSw0OS43NSBMNjA1LjM3NSw1MS41IEw2MTAuMzEyNSw1MS41IEw2MTAuMzEyNSw0OS43NSBMNjA1LjM3NSw0OS43NSBaIE02MDYuMDYyNSw1MC40Mzc1IFE2MDYuMDYyNSw1MC40Mzc1IDYwNi4wNjI1LDQxLjI1IEw2MDQuMzEyNSw0MS4yNSBRNjA0LjMxMjUsNDEuMjUgNjA0LjMxMjUsNTAuNDM3NSBMNjA2LjA2MjUsNTAuNDM3NSBaIE02MDkuNjI1LDUwLjQzNzUgTDYxMS4zNzUsNTAuNDM3NSBRNjExLjM3NSw1MC40Mzc1IDYxMS4zNzUsNDcuNjI1IEw2MDkuNjI1LDQ3LjYyNSBRNjA5LjYyNSw0Ny42MjUgNjA5LjYyNSw1MC40Mzc1IFogTTYwOS42MjUsNDEuMjUgUTYwOS42MjUsNDEuMjUgNjA5LjYyNSw0NC4wNjI1IEw2MTEuMzc1LDQ0LjA2MjUgUTYxMS4zNzUsNDQuMDYyNSA2MTEuMzc1LDQxLjI1IEw2MDkuNjI1LDQxLjI1IFogTTYwNS4zNzUsNDEuOTM3NSBMNjEwLjMxMjUsNDEuOTM3NSBMNjEwLjMxMjUsNDAuMTg3NSBMNjA1LjM3NSw0MC4xODc1IEw2MDUuMzc1LDQxLjkzNzUgWiAiIGZpbGw9IiMwMDAwMDAiLz48dGV4dCBmaWxsPSIjMDAwMDAwIiBmb250LWZhbWlseT0ic2Fucy1zZXJpZiIgZm9udC1zaXplPSIxNCIgbGVuZ3RoQWRqdXN0PSJzcGFjaW5nIiB0ZXh0TGVuZ3RoPSIyMiIgeD0iNjI4LjI1IiB5PSI1MS4yNDIyIj5Pd2w8L3RleHQ+PGxpbmUgc3R5bGU9InN0cm9rZTojMTgxODE4O3N0cm9rZS13aWR0aDowLjU7IiB4MT0iNTE0LjUiIHgyPSI3MzEuNSIgeTE9IjYxLjUiIHkyPSI2MS41Ii8+PGxpbmUgc3R5bGU9InN0cm9rZTojMTgxODE4O3N0cm9rZS13aWR0aDowLjU7IiB4MT0iNTE0LjUiIHgyPSI3MzEuNSIgeTE9IjY5LjUiIHkyPSI2OS41Ii8+PGVsbGlwc2UgY3g9IjUyNC41IiBjeT0iODIuNDkyMiIgZmlsbD0iIzg0QkU4NCIgcng9IjMiIHJ5PSIzIiBzdHlsZT0ic3Ryb2tlOiMwMzgwNDg7c3Ryb2tlLXdpZHRoOjEuMDsiLz48dGV4dCBmaWxsPSIjMDAwMDAwIiBmb250LWZhbWlseT0ic2Fucy1zZXJpZiIgZm9udC1zaXplPSIxNCIgbGVuZ3RoQWRqdXN0PSJzcGFjaW5nIiB0ZXh0TGVuZ3RoPSIzOCIgeD0iNTMzLjUiIHk9Ijg2LjczNDQiPk93bCgpPC90ZXh0PjxlbGxpcHNlIGN4PSI1MjQuNSIgY3k9Ijk3LjQ3NjYiIGZpbGw9IiM4NEJFODQiIHJ4PSIzIiByeT0iMyIgc3R5bGU9InN0cm9rZTojMDM4MDQ4O3N0cm9rZS13aWR0aDoxLjA7Ii8+PHRleHQgZmlsbD0iIzAwMDAwMCIgZm9udC1mYW1pbHk9InNhbnMtc2VyaWYiIGZvbnQtc2l6ZT0iMTQiIGxlbmd0aEFkanVzdD0ic3BhY2luZyIgdGV4dExlbmd0aD0iMTkzIiB4PSI1MzMuNSIgeT0iMTAxLjcxODgiPk93bChuYW1lOiBTdHJpbmcsIGFnZTogaW50KTwvdGV4dD48ZWxsaXBzZSBjeD0iNTI0LjUiIGN5PSIxMTIuNDYwOSIgZmlsbD0iIzg0QkU4NCIgcng9IjMiIHJ5PSIzIiBzdHlsZT0ic3Ryb2tlOiMwMzgwNDg7c3Ryb2tlLXdpZHRoOjEuMDsiLz48dGV4dCBmaWxsPSIjMDAwMDAwIiBmb250LWZhbWlseT0ic2Fucy1zZXJpZiIgZm9udC1zaXplPSIxNCIgbGVuZ3RoQWRqdXN0PSJzcGFjaW5nIiB0ZXh0TGVuZ3RoPSIxMzUiIHg9IjUzMy41IiB5PSIxMTYuNzAzMSI+cmVwcm9kdWNlKCk6IFN0cmluZzwvdGV4dD48L2c+PCEtLWNsYXNzIENhdEZvb2QtLT48ZyBpZD0iZWxlbV9DYXRGb29kIj48cmVjdCBjb2RlTGluZT0iNjgiIGZpbGw9IiNGMUYxRjEiIGhlaWdodD0iNjIuOTg0NCIgaWQ9IkNhdEZvb2QiIHJ4PSIyLjUiIHJ5PSIyLjUiIHN0eWxlPSJzdHJva2U6IzE4MTgxODtzdHJva2Utd2lkdGg6MC41OyIgd2lkdGg9IjE0OCIgeD0iMTA2MCIgeT0iMzU5Ii8+PGVsbGlwc2UgY3g9IjExMDUuMjUiIGN5PSIzNzUiIGZpbGw9IiNBREQxQjIiIHJ4PSIxMSIgcnk9IjExIiBzdHlsZT0ic3Ryb2tlOiMxODE4MTg7c3Ryb2tlLXdpZHRoOjEuMDsiLz48cGF0aCBkPSJNMTEwMi44NzUsMzc5LjI1IEwxMTAyLjg3NSwzODEgTDExMDcuODEyNSwzODEgTDExMDcuODEyNSwzNzkuMjUgTDExMDIuODc1LDM3OS4yNSBaIE0xMTAzLjU2MjUsMzc5LjkzNzUgUTExMDMuNTYyNSwzNzkuOTM3NSAxMTAzLjU2MjUsMzcwLjc1IEwxMTAxLjgxMjUsMzcwLjc1IFExMTAxLjgxMjUsMzcwLjc1IDExMDEuODEyNSwzNzkuOTM3NSBMMTEwMy41NjI1LDM3OS45Mzc1IFogTTExMDcuMTI1LDM3OS45Mzc1IEwxMTA4Ljg3NSwzNzkuOTM3NSBRMTEwOC44NzUsMzc5LjkzNzUgMTEwOC44NzUsMzc3LjEyNSBMMTEwNy4xMjUsMzc3LjEyNSBRMTEwNy4xMjUsMzc3LjEyNSAxMTA3LjEyNSwzNzkuOTM3NSBaIE0xMTA3LjEyNSwzNzAuNzUgUTExMDcuMTI1LDM3MC43NSAxMTA3LjEyNSwzNzMuNTYyNSBMMTEwOC44NzUsMzczLjU2MjUgUTExMDguODc1LDM3My41NjI1IDExMDguODc1LDM3MC43NSBMMTEwNy4xMjUsMzcwLjc1IFogTTExMDIuODc1LDM3MS40Mzc1IEwxMTA3LjgxMjUsMzcxLjQzNzUgTDExMDcuODEyNSwzNjkuNjg3NSBMMTEwMi44NzUsMzY5LjY4NzUgTDExMDIuODc1LDM3MS40Mzc1IFogIiBmaWxsPSIjMDAwMDAwIi8+PHRleHQgZmlsbD0iIzAwMDAwMCIgZm9udC1mYW1pbHk9InNhbnMtc2VyaWYiIGZvbnQtc2l6ZT0iMTQiIGxlbmd0aEFkanVzdD0ic3BhY2luZyIgdGV4dExlbmd0aD0iNDkiIHg9IjExMjUuNzUiIHk9IjM4MC43NDIyIj5DYXRGb29kPC90ZXh0PjxsaW5lIHN0eWxlPSJzdHJva2U6IzE4MTgxODtzdHJva2Utd2lkdGg6MC41OyIgeDE9IjEwNjEiIHgyPSIxMjA3IiB5MT0iMzkxIiB5Mj0iMzkxIi8+PGxpbmUgc3R5bGU9InN0cm9rZTojMTgxODE4O3N0cm9rZS13aWR0aDowLjU7IiB4MT0iMTA2MSIgeDI9IjEyMDciIHkxPSIzOTkiIHkyPSIzOTkiLz48ZWxsaXBzZSBjeD0iMTA3MSIgY3k9IjQxMS45OTIyIiBmaWxsPSIjODRCRTg0IiByeD0iMyIgcnk9IjMiIHN0eWxlPSJzdHJva2U6IzAzODA0ODtzdHJva2Utd2lkdGg6MS4wOyIvPjx0ZXh0IGZpbGw9IiMwMDAwMDAiIGZvbnQtZmFtaWx5PSJzYW5zLXNlcmlmIiBmb250LXNpemU9IjE0IiBsZW5ndGhBZGp1c3Q9InNwYWNpbmciIHRleHRMZW5ndGg9IjEyMiIgeD0iMTA4MCIgeT0iNDE2LjIzNDQiPmdldE5hbWUoKTogU3RyaW5nPC90ZXh0PjwvZz48IS0tY2xhc3MgRG9nRm9vZC0tPjxnIGlkPSJlbGVtX0RvZ0Zvb2QiPjxyZWN0IGNvZGVMaW5lPSI3MiIgZmlsbD0iI0YxRjFGMSIgaGVpZ2h0PSI2Mi45ODQ0IiBpZD0iRG9nRm9vZCIgcng9IjIuNSIgcnk9IjIuNSIgc3R5bGU9InN0cm9rZTojMTgxODE4O3N0cm9rZS13aWR0aDowLjU7IiB3aWR0aD0iMTQ4IiB4PSIxMjQzIiB5PSIzNTkiLz48ZWxsaXBzZSBjeD0iMTI4OC4yNSIgY3k9IjM3NSIgZmlsbD0iI0FERDFCMiIgcng9IjExIiByeT0iMTEiIHN0eWxlPSJzdHJva2U6IzE4MTgxODtzdHJva2Utd2lkdGg6MS4wOyIvPjxwYXRoIGQ9Ik0xMjg1Ljg3NSwzNzkuMjUgTDEyODUuODc1LDM4MSBMMTI5MC44MTI1LDM4MSBMMTI5MC44MTI1LDM3OS4yNSBMMTI4NS44NzUsMzc5LjI1IFogTTEyODYuNTYyNSwzNzkuOTM3NSBRMTI4Ni41NjI1LDM3OS45Mzc1IDEyODYuNTYyNSwzNzAuNzUgTDEyODQuODEyNSwzNzAuNzUgUTEyODQuODEyNSwzNzAuNzUgMTI4NC44MTI1LDM3OS45Mzc1IEwxMjg2LjU2MjUsMzc5LjkzNzUgWiBNMTI5MC4xMjUsMzc5LjkzNzUgTDEyOTEuODc1LDM3OS45Mzc1IFExMjkxLjg3NSwzNzkuOTM3NSAxMjkxLjg3NSwzNzcuMTI1IEwxMjkwLjEyNSwzNzcuMTI1IFExMjkwLjEyNSwzNzcuMTI1IDEyOTAuMTI1LDM3OS45Mzc1IFogTTEyOTAuMTI1LDM3MC43NSBRMTI5MC4xMjUsMzcwLjc1IDEyOTAuMTI1LDM3My41NjI1IEwxMjkxLjg3NSwzNzMuNTYyNSBRMTI5MS44NzUsMzczLjU2MjUgMTI5MS44NzUsMzcwLjc1IEwxMjkwLjEyNSwzNzAuNzUgWiBNMTI4NS44NzUsMzcxLjQzNzUgTDEyOTAuODEyNSwzNzEuNDM3NSBMMTI5MC44MTI1LDM2OS42ODc1IEwxMjg1Ljg3NSwzNjkuNjg3NSBMMTI4NS44NzUsMzcxLjQzNzUgWiAiIGZpbGw9IiMwMDAwMDAiLz48dGV4dCBmaWxsPSIjMDAwMDAwIiBmb250LWZhbWlseT0ic2Fucy1zZXJpZiIgZm9udC1zaXplPSIxNCIgbGVuZ3RoQWRqdXN0PSJzcGFjaW5nIiB0ZXh0TGVuZ3RoPSI0OSIgeD0iMTMwOC43NSIgeT0iMzgwLjc0MjIiPkRvZ0Zvb2Q8L3RleHQ+PGxpbmUgc3R5bGU9InN0cm9rZTojMTgxODE4O3N0cm9rZS13aWR0aDowLjU7IiB4MT0iMTI0NCIgeDI9IjEzOTAiIHkxPSIzOTEiIHkyPSIzOTEiLz48bGluZSBzdHlsZT0ic3Ryb2tlOiMxODE4MTg7c3Ryb2tlLXdpZHRoOjAuNTsiIHgxPSIxMjQ0IiB4Mj0iMTM5MCIgeTE9IjM5OSIgeTI9IjM5OSIvPjxlbGxpcHNlIGN4PSIxMjU0IiBjeT0iNDExLjk5MjIiIGZpbGw9IiM4NEJFODQiIHJ4PSIzIiByeT0iMyIgc3R5bGU9InN0cm9rZTojMDM4MDQ4O3N0cm9rZS13aWR0aDoxLjA7Ii8+PHRleHQgZmlsbD0iIzAwMDAwMCIgZm9udC1mYW1pbHk9InNhbnMtc2VyaWYiIGZvbnQtc2l6ZT0iMTQiIGxlbmd0aEFkanVzdD0ic3BhY2luZyIgdGV4dExlbmd0aD0iMTIyIiB4PSIxMjYzIiB5PSI0MTYuMjM0NCI+Z2V0TmFtZSgpOiBTdHJpbmc8L3RleHQ+PC9nPjwhLS1jbGFzcyBGaXNoRm9vZC0tPjxnIGlkPSJlbGVtX0Zpc2hGb29kIj48cmVjdCBjb2RlTGluZT0iNzYiIGZpbGw9IiNGMUYxRjEiIGhlaWdodD0iNjIuOTg0NCIgaWQ9IkZpc2hGb29kIiByeD0iMi41IiByeT0iMi41IiBzdHlsZT0ic3Ryb2tlOiMxODE4MTg7c3Ryb2tlLXdpZHRoOjAuNTsiIHdpZHRoPSIxNDgiIHg9IjE0MjYiIHk9IjM1OSIvPjxlbGxpcHNlIGN4PSIxNDY4IiBjeT0iMzc1IiBmaWxsPSIjQUREMUIyIiByeD0iMTEiIHJ5PSIxMSIgc3R5bGU9InN0cm9rZTojMTgxODE4O3N0cm9rZS13aWR0aDoxLjA7Ii8+PHBhdGggZD0iTTE0NjUuNjI1LDM3OS4yNSBMMTQ2NS42MjUsMzgxIEwxNDcwLjU2MjUsMzgxIEwxNDcwLjU2MjUsMzc5LjI1IEwxNDY1LjYyNSwzNzkuMjUgWiBNMTQ2Ni4zMTI1LDM3OS45Mzc1IFExNDY2LjMxMjUsMzc5LjkzNzUgMTQ2Ni4zMTI1LDM3MC43NSBMMTQ2NC41NjI1LDM3MC43NSBRMTQ2NC41NjI1LDM3MC43NSAxNDY0LjU2MjUsMzc5LjkzNzUgTDE0NjYuMzEyNSwzNzkuOTM3NSBaIE0xNDY5Ljg3NSwzNzkuOTM3NSBMMTQ3MS42MjUsMzc5LjkzNzUgUTE0NzEuNjI1LDM3OS45Mzc1IDE0NzEuNjI1LDM3Ny4xMjUgTDE0NjkuODc1LDM3Ny4xMjUgUTE0NjkuODc1LDM3Ny4xMjUgMTQ2OS44NzUsMzc5LjkzNzUgWiBNMTQ2OS44NzUsMzcwLjc1IFExNDY5Ljg3NSwzNzAuNzUgMTQ2OS44NzUsMzczLjU2MjUgTDE0NzEuNjI1LDM3My41NjI1IFExNDcxLjYyNSwzNzMuNTYyNSAxNDcxLjYyNSwzNzAuNzUgTDE0NjkuODc1LDM3MC43NSBaIE0xNDY1LjYyNSwzNzEuNDM3NSBMMTQ3MC41NjI1LDM3MS40Mzc1IEwxNDcwLjU2MjUsMzY5LjY4NzUgTDE0NjUuNjI1LDM2OS42ODc1IEwxNDY1LjYyNSwzNzEuNDM3NSBaICIgZmlsbD0iIzAwMDAwMCIvPjx0ZXh0IGZpbGw9IiMwMDAwMDAiIGZvbnQtZmFtaWx5PSJzYW5zLXNlcmlmIiBmb250LXNpemU9IjE0IiBsZW5ndGhBZGp1c3Q9InNwYWNpbmciIHRleHRMZW5ndGg9IjU2IiB4PSIxNDg4IiB5PSIzODAuNzQyMiI+RmlzaEZvb2Q8L3RleHQ+PGxpbmUgc3R5bGU9InN0cm9rZTojMTgxODE4O3N0cm9rZS13aWR0aDowLjU7IiB4MT0iMTQyNyIgeDI9IjE1NzMiIHkxPSIzOTEiIHkyPSIzOTEiLz48bGluZSBzdHlsZT0ic3Ryb2tlOiMxODE4MTg7c3Ryb2tlLXdpZHRoOjAuNTsiIHgxPSIxNDI3IiB4Mj0iMTU3MyIgeTE9IjM5OSIgeTI9IjM5OSIvPjxlbGxpcHNlIGN4PSIxNDM3IiBjeT0iNDExLjk5MjIiIGZpbGw9IiM4NEJFODQiIHJ4PSIzIiByeT0iMyIgc3R5bGU9InN0cm9rZTojMDM4MDQ4O3N0cm9rZS13aWR0aDoxLjA7Ii8+PHRleHQgZmlsbD0iIzAwMDAwMCIgZm9udC1mYW1pbHk9InNhbnMtc2VyaWYiIGZvbnQtc2l6ZT0iMTQiIGxlbmd0aEFkanVzdD0ic3BhY2luZyIgdGV4dExlbmd0aD0iMTIyIiB4PSIxNDQ2IiB5PSI0MTYuMjM0NCI+Z2V0TmFtZSgpOiBTdHJpbmc8L3RleHQ+PC9nPjwhLS1jbGFzcyBCaXJkRm9vZC0tPjxnIGlkPSJlbGVtX0JpcmRGb29kIj48cmVjdCBjb2RlTGluZT0iODAiIGZpbGw9IiNGMUYxRjEiIGhlaWdodD0iNjIuOTg0NCIgaWQ9IkJpcmRGb29kIiByeD0iMi41IiByeT0iMi41IiBzdHlsZT0ic3Ryb2tlOiMxODE4MTg7c3Ryb2tlLXdpZHRoOjAuNTsiIHdpZHRoPSIxNDgiIHg9IjE2MDkiIHk9IjM1OSIvPjxlbGxpcHNlIGN4PSIxNjUxIiBjeT0iMzc1IiBmaWxsPSIjQUREMUIyIiByeD0iMTEiIHJ5PSIxMSIgc3R5bGU9InN0cm9rZTojMTgxODE4O3N0cm9rZS13aWR0aDoxLjA7Ii8+PHBhdGggZD0iTTE2NDguNjI1LDM3OS4yNSBMMTY0OC42MjUsMzgxIEwxNjUzLjU2MjUsMzgxIEwxNjUzLjU2MjUsMzc5LjI1IEwxNjQ4LjYyNSwzNzkuMjUgWiBNMTY0OS4zMTI1LDM3OS45Mzc1IFExNjQ5LjMxMjUsMzc5LjkzNzUgMTY0OS4zMTI1LDM3MC43NSBMMTY0Ny41NjI1LDM3MC43NSBRMTY0Ny41NjI1LDM3MC43NSAxNjQ3LjU2MjUsMzc5LjkzNzUgTDE2NDkuMzEyNSwzNzkuOTM3NSBaIE0xNjUyLjg3NSwzNzkuOTM3NSBMMTY1NC42MjUsMzc5LjkzNzUgUTE2NTQuNjI1LDM3OS45Mzc1IDE2NTQuNjI1LDM3Ny4xMjUgTDE2NTIuODc1LDM3Ny4xMjUgUTE2NTIuODc1LDM3Ny4xMjUgMTY1Mi44NzUsMzc5LjkzNzUgWiBNMTY1Mi44NzUsMzcwLjc1IFExNjUyLjg3NSwzNzAuNzUgMTY1Mi44NzUsMzczLjU2MjUgTDE2NTQuNjI1LDM3My41NjI1IFExNjU0LjYyNSwzNzMuNTYyNSAxNjU0LjYyNSwzNzAuNzUgTDE2NTIuODc1LDM3MC43NSBaIE0xNjQ4LjYyNSwzNzEuNDM3NSBMMTY1My41NjI1LDM3MS40Mzc1IEwxNjUzLjU2MjUsMzY5LjY4NzUgTDE2NDguNjI1LDM2OS42ODc1IEwxNjQ4LjYyNSwzNzEuNDM3NSBaICIgZmlsbD0iIzAwMDAwMCIvPjx0ZXh0IGZpbGw9IiMwMDAwMDAiIGZvbnQtZmFtaWx5PSJzYW5zLXNlcmlmIiBmb250LXNpemU9IjE0IiBsZW5ndGhBZGp1c3Q9InNwYWNpbmciIHRleHRMZW5ndGg9IjU2IiB4PSIxNjcxIiB5PSIzODAuNzQyMiI+QmlyZEZvb2Q8L3RleHQ+PGxpbmUgc3R5bGU9InN0cm9rZTojMTgxODE4O3N0cm9rZS13aWR0aDowLjU7IiB4MT0iMTYxMCIgeDI9IjE3NTYiIHkxPSIzOTEiIHkyPSIzOTEiLz48bGluZSBzdHlsZT0ic3Ryb2tlOiMxODE4MTg7c3Ryb2tlLXdpZHRoOjAuNTsiIHgxPSIxNjEwIiB4Mj0iMTc1NiIgeTE9IjM5OSIgeTI9IjM5OSIvPjxlbGxpcHNlIGN4PSIxNjIwIiBjeT0iNDExLjk5MjIiIGZpbGw9IiM4NEJFODQiIHJ4PSIzIiByeT0iMyIgc3R5bGU9InN0cm9rZTojMDM4MDQ4O3N0cm9rZS13aWR0aDoxLjA7Ii8+PHRleHQgZmlsbD0iIzAwMDAwMCIgZm9udC1mYW1pbHk9InNhbnMtc2VyaWYiIGZvbnQtc2l6ZT0iMTQiIGxlbmd0aEFkanVzdD0ic3BhY2luZyIgdGV4dExlbmd0aD0iMTIyIiB4PSIxNjI5IiB5PSI0MTYuMjM0NCI+Z2V0TmFtZSgpOiBTdHJpbmc8L3RleHQ+PC9nPjwhLS1yZXZlcnNlIGxpbmsgQW5pbWFsIHRvIFRlcnJlc3RyaWFsQW5pbWFsLS0+PGcgaWQ9ImxpbmtfQW5pbWFsX1RlcnJlc3RyaWFsQW5pbWFsIj48cGF0aCBjb2RlTGluZT0iODQiIGQ9Ik0xMDE2LjI3LDEzOC45IEMxMDEwLjgxLDE0MS4wNyAxMDA1LjM3LDE0My4xMSAxMDAwLDE0NSBDOTkxLjcyLDE0Ny45MSA4MDYuOCwxODguNjYgNjY1Ljc2LDIyMC40ICIgZmlsbD0ibm9uZSIgaWQ9IkFuaW1hbC1iYWNrdG8tVGVycmVzdHJpYWxBbmltYWwiIHN0eWxlPSJzdHJva2U6IzE4MTgxODtzdHJva2Utd2lkdGg6MS4wOyIvPjxwb2x5Z29uIGZpbGw9Im5vbmUiIHBvaW50cz0iMTAxMy43MywxMzIuMzgsMTAzNC44OCwxMzEuMTUsMTAxOS4xMSwxNDUuMywxMDEzLjczLDEzMi4zOCIgc3R5bGU9InN0cm9rZTojMTgxODE4O3N0cm9rZS13aWR0aDoxLjA7Ii8+PC9nPjwhLS1saW5rIFRlcnJlc3RyaWFsQW5pbWFsIHRvIEFuaW1hbC0tPjxnIGlkPSJsaW5rX1RlcnJlc3RyaWFsQW5pbWFsX0FuaW1hbCI+PHBhdGggY29kZUxpbmU9Ijg5IiBkPSJNNjY1Ljc0LDIyNi4yIEM3OTMuMTMsMTk5LjE3IDk1OS40MywxNjIuNzUgMTAxNS45MywxNDkuNjQgIiBmaWxsPSJub25lIiBpZD0iVGVycmVzdHJpYWxBbmltYWwtdG8tQW5pbWFsIiBzdHlsZT0ic3Ryb2tlOiMxODE4MTg7c3Ryb2tlLXdpZHRoOjEuMDsiLz48cG9seWdvbiBmaWxsPSJub25lIiBwb2ludHM9IjEwMTQuMjksMTQyLjg0LDEwMzUuMzgsMTQ0Ljg3LDEwMTcuNjIsMTU2LjQzLDEwMTQuMjksMTQyLjg0IiBzdHlsZT0ic3Ryb2tlOiMxODE4MTg7c3Ryb2tlLXdpZHRoOjEuMDsiLz48L2c+PCEtLXJldmVyc2UgbGluayBBbmltYWwgdG8gQXF1YXRpY0FuaW1hbC0tPjxnIGlkPSJsaW5rX0FuaW1hbF9BcXVhdGljQW5pbWFsIj48cGF0aCBjb2RlTGluZT0iODUiIGQ9Ik0xMTQyLjI1LDE2NS4zNSBDMTE0Mi4yLDE4NC41MiAxMTQyLjksMjAzLjgyIDExNDQuMzcsMjE5LjggIiBmaWxsPSJub25lIiBpZD0iQW5pbWFsLWJhY2t0by1BcXVhdGljQW5pbWFsIiBzdHlsZT0ic3Ryb2tlOiMxODE4MTg7c3Ryb2tlLXdpZHRoOjEuMDsiLz48cG9seWdvbiBmaWxsPSJub25lIiBwb2ludHM9IjExMzUuMjYsMTY1LjA1LDExNDIuNiwxNDUuMTcsMTE0OS4yNiwxNjUuMjksMTEzNS4yNiwxNjUuMDUiIHN0eWxlPSJzdHJva2U6IzE4MTgxODtzdHJva2Utd2lkdGg6MS4wOyIvPjwvZz48IS0tbGluayBBcXVhdGljQW5pbWFsIHRvIEFuaW1hbC0tPjxnIGlkPSJsaW5rX0FxdWF0aWNBbmltYWxfQW5pbWFsIj48cGF0aCBjb2RlTGluZT0iOTAiIGQ9Ik0xMTY2LjI1LDIxOS44IEMxMTY3LjgxLDIwMy44MiAxMTY4LjU2LDE4NC41MiAxMTY4LjUsMTY1LjM1ICIgZmlsbD0ibm9uZSIgaWQ9IkFxdWF0aWNBbmltYWwtdG8tQW5pbWFsIiBzdHlsZT0ic3Ryb2tlOiMxODE4MTg7c3Ryb2tlLXdpZHRoOjEuMDsiLz48cG9seWdvbiBmaWxsPSJub25lIiBwb2ludHM9IjExNjEuNDksMTY1LjI5LDExNjguMTMsMTQ1LjE3LDExNzUuNDksMTY1LjA0LDExNjEuNDksMTY1LjI5IiBzdHlsZT0ic3Ryb2tlOiMxODE4MTg7c3Ryb2tlLXdpZHRoOjEuMDsiLz48L2c+PCEtLXJldmVyc2UgbGluayBBbmltYWwgdG8gQXZpYW5BbmltYWwtLT48ZyBpZD0ibGlua19BbmltYWxfQXZpYW5BbmltYWwiPjxwYXRoIGNvZGVMaW5lPSI4NiIgZD0iTTEwMzYuMzcsMTU2LjkgQzEwMTkuMTcsMTY4LjY5IDEwMDEuNDEsMTgwLjE2IDk4NCwxOTAgQzk2NC43OCwyMDAuODYgOTQzLjQ3LDIxMC45OSA5MjMuMTYsMjE5Ljk0ICIgZmlsbD0ibm9uZSIgaWQ9IkFuaW1hbC1iYWNrdG8tQXZpYW5BbmltYWwiIHN0eWxlPSJzdHJva2U6IzE4MTgxODtzdHJva2Utd2lkdGg6MS4wOyIvPjxwb2x5Z29uIGZpbGw9Im5vbmUiIHBvaW50cz0iMTAzMi41OCwxNTEsMTA1Mi45OSwxNDUuMjksMTA0MC42LDE2Mi40OCwxMDMyLjU4LDE1MSIgc3R5bGU9InN0cm9rZTojMTgxODE4O3N0cm9rZS13aWR0aDoxLjA7Ii8+PC9nPjwhLS1saW5rIEF2aWFuQW5pbWFsIHRvIEFuaW1hbC0tPjxnIGlkPSJsaW5rX0F2aWFuQW5pbWFsX0FuaW1hbCI+PHBhdGggY29kZUxpbmU9IjkxIiBkPSJNOTU3LjM4LDIxOS45NCBDOTc4LjQ3LDIxMC45OSA5OTkuNzgsMjAwLjg2IDEwMTksMTkwIEMxMDM2LjMyLDE4MC4yMiAxMDUzLjk5LDE2OC44MSAxMDcwLjY1LDE1Ny4wOCAiIGZpbGw9Im5vbmUiIGlkPSJBdmlhbkFuaW1hbC10by1BbmltYWwiIHN0eWxlPSJzdHJva2U6IzE4MTgxODtzdHJva2Utd2lkdGg6MS4wOyIvPjxwb2x5Z29uIGZpbGw9Im5vbmUiIHBvaW50cz0iMTA2Ni42MiwxNTEuMzYsMTA4Ni45MiwxNDUuMjksMTA3NC44MywxNjIuNjksMTA2Ni42MiwxNTEuMzYiIHN0eWxlPSJzdHJva2U6IzE4MTgxODtzdHJva2Utd2lkdGg6MS4wOyIvPjwvZz48IS0tbGluayBBbmltYWwgdG8gRm9vZC0tPjxnIGlkPSJsaW5rX0FuaW1hbF9Gb29kIj48cGF0aCBjb2RlTGluZT0iODciIGQ9Ik0xMjUwLjI5LDE0NS4xNyBDMTI4My40MywxNjguODggMTMxOS42MSwxOTQuNzYgMTM0OC45NSwyMTUuNzYgIiBmaWxsPSJub25lIiBpZD0iQW5pbWFsLXRvLUZvb2QiIHN0eWxlPSJzdHJva2U6IzE4MTgxODtzdHJva2Utd2lkdGg6MS4wOyIvPjxwb2x5Z29uIGZpbGw9Im5vbmUiIHBvaW50cz0iMTM1My4xNywyMTAuMTcsMTM2NS4zNiwyMjcuNSwxMzQ1LjAyLDIyMS41NSwxMzUzLjE3LDIxMC4xNyIgc3R5bGU9InN0cm9rZTojMTgxODE4O3N0cm9rZS13aWR0aDoxLjA7Ii8+PHBvbHlnb24gZmlsbD0iIzAwMDAwMCIgcG9pbnRzPSIxMzIxLjA2NjQsMTg1Ljg2NjUsMTMxNS40MjA0LDE3OC4yMTMxLDEzMTIuMDAwMSwxODIuOTkzNCwxMzIxLjA2NjQsMTg1Ljg2NjUiIHN0eWxlPSJzdHJva2U6IzAwMDAwMDtzdHJva2Utd2lkdGg6MS4wOyIvPjx0ZXh0IGZpbGw9IiMwMDAwMDAiIGZvbnQtZmFtaWx5PSJzYW5zLXNlcmlmIiBmb250LXNpemU9IjEzIiBsZW5ndGhBZGp1c3Q9InNwYWNpbmciIHRleHRMZW5ndGg9IjU1IiB4PSIxMzI2IiB5PSIxODguMjg5MSI+Y29uc3VtZXM8L3RleHQ+PC9nPjwhLS1saW5rIERvZyB0byBUZXJyZXN0cmlhbEFuaW1hbC0tPjxnIGlkPSJsaW5rX0RvZ19UZXJyZXN0cmlhbEFuaW1hbCI+PHBhdGggY29kZUxpbmU9IjkzIiBkPSJNMTk3Ljc5LDEyMi41NCBDMjEyLjM5LDEzMC4yNyAyMjcuNTYsMTM4LjA0IDI0MiwxNDUgQzI5MC45MiwxNjguNTcgMzQ2LDE5Mi40NyAzOTMuMjMsMjEyLjE4ICIgZmlsbD0ibm9uZSIgaWQ9IkRvZy10by1UZXJyZXN0cmlhbEFuaW1hbCIgc3R5bGU9InN0cm9rZTojMTgxODE4O3N0cm9rZS13aWR0aDoxLjA7Ii8+PHBvbHlnb24gZmlsbD0ibm9uZSIgcG9pbnRzPSIzOTYuMTQsMjA1LjgxLDQxMS45MywyMTkuOTQsMzkwLjc3LDIxOC43NCwzOTYuMTQsMjA1LjgxIiBzdHlsZT0ic3Ryb2tlOiMxODE4MTg7c3Ryb2tlLXdpZHRoOjEuMDsiLz48L2c+PCEtLWxpbmsgQ2F0IHRvIFRlcnJlc3RyaWFsQW5pbWFsLS0+PGcgaWQ9ImxpbmtfQ2F0X1RlcnJlc3RyaWFsQW5pbWFsIj48cGF0aCBjb2RlTGluZT0iOTQiIGQ9Ik00MDMuODIsMTIyLjY3IEM0MjIuNjIsMTQ3LjMzIDQ0NS45NSwxNzcuOTIgNDY1LjY2LDIwMy43OCAiIGZpbGw9Im5vbmUiIGlkPSJDYXQtdG8tVGVycmVzdHJpYWxBbmltYWwiIHN0eWxlPSJzdHJva2U6IzE4MTgxODtzdHJva2Utd2lkdGg6MS4wOyIvPjxwb2x5Z29uIGZpbGw9Im5vbmUiIHBvaW50cz0iNDcxLjQ1LDE5OS44Myw0NzguMDEsMjE5Ljk4LDQ2MC4zMiwyMDguMzIsNDcxLjQ1LDE5OS44MyIgc3R5bGU9InN0cm9rZTojMTgxODE4O3N0cm9rZS13aWR0aDoxLjA7Ii8+PC9nPjwhLS1saW5rIFNoYXJrIHRvIEFxdWF0aWNBbmltYWwtLT48ZyBpZD0ibGlua19TaGFya19BcXVhdGljQW5pbWFsIj48cGF0aCBjb2RlTGluZT0iOTUiIGQ9Ik0xNDkwLjU0LDEyMi41NCBDMTQ2Mi40NCwxNDUuNDYgMTQyNi4wOSwxNzIuMSAxMzkwLDE5MCBDMTM2Ny42NywyMDEuMDcgMTM0My4yMywyMTAuNjUgMTMxOC44MywyMTguODIgIiBmaWxsPSJub25lIiBpZD0iU2hhcmstdG8tQXF1YXRpY0FuaW1hbCIgc3R5bGU9InN0cm9rZTojMTgxODE4O3N0cm9rZS13aWR0aDoxLjA7Ii8+PHBvbHlnb24gZmlsbD0ibm9uZSIgcG9pbnRzPSIxMzIwLjkzLDIyNS40OSwxMjk5Ljc1LDIyNC45NCwxMzE2LjY2LDIxMi4xNiwxMzIwLjkzLDIyNS40OSIgc3R5bGU9InN0cm9rZTojMTgxODE4O3N0cm9rZS13aWR0aDoxLjA7Ii8+PC9nPjwhLS1saW5rIFdoYWxlIHRvIEFxdWF0aWNBbmltYWwtLT48ZyBpZD0ibGlua19XaGFsZV9BcXVhdGljQW5pbWFsIj48cGF0aCBjb2RlTGluZT0iOTYiIGQ9Ik05NTIuMzgsMTIyLjY3IEM5OTEuNjcsMTQ4LjkxIDEwNDEuMDMsMTgxLjg4IDEwODEuMiwyMDguNzEgIiBmaWxsPSJub25lIiBpZD0iV2hhbGUtdG8tQXF1YXRpY0FuaW1hbCIgc3R5bGU9InN0cm9rZTojMTgxODE4O3N0cm9rZS13aWR0aDoxLjA7Ii8+PHBvbHlnb24gZmlsbD0ibm9uZSIgcG9pbnRzPSIxMDg1LjMzLDIwMy4wNSwxMDk4LjA4LDIxOS45OCwxMDc3LjU2LDIxNC42OSwxMDg1LjMzLDIwMy4wNSIgc3R5bGU9InN0cm9rZTojMTgxODE4O3N0cm9rZS13aWR0aDoxLjA7Ii8+PC9nPjwhLS1saW5rIE93bCB0byBBdmlhbkFuaW1hbC0tPjxnIGlkPSJsaW5rX093bF9BdmlhbkFuaW1hbCI+PHBhdGggY29kZUxpbmU9Ijk3IiBkPSJNNjc3LjI1LDEyMi42NyBDNzA3LjgsMTQ4LjM5IDc0Ni4wMSwxODAuNTYgNzc3LjUxLDIwNy4wOCAiIGZpbGw9Im5vbmUiIGlkPSJPd2wtdG8tQXZpYW5BbmltYWwiIHN0eWxlPSJzdHJva2U6IzE4MTgxODtzdHJva2Utd2lkdGg6MS4wOyIvPjxwb2x5Z29uIGZpbGw9Im5vbmUiIHBvaW50cz0iNzgyLjA1LDIwMS43NSw3OTIuODQsMjE5Ljk4LDc3My4wMywyMTIuNDYsNzgyLjA1LDIwMS43NSIgc3R5bGU9InN0cm9rZTojMTgxODE4O3N0cm9rZS13aWR0aDoxLjA7Ii8+PC9nPjwhLS1saW5rIERvZyB0byBNYW1tYWwtLT48ZyBpZD0ibGlua19Eb2dfTWFtbWFsIj48cGF0aCBjb2RlTGluZT0iOTkiIGQ9Ik0xNDUuNTIsMTIyLjY3IEMxNjIuODIsMTQ5LjQ0IDE4NC42NCwxODMuMTkgMjAyLjE2LDIxMC4zICIgZmlsbD0ibm9uZSIgaWQ9IkRvZy10by1NYW1tYWwiIHN0eWxlPSJzdHJva2U6IzE4MTgxODtzdHJva2Utd2lkdGg6MS4wO3N0cm9rZS1kYXNoYXJyYXk6Ny4wLDcuMDsiLz48cG9seWdvbiBmaWxsPSJub25lIiBwb2ludHM9IjIwOC4yNSwyMDYuODIsMjEzLjIzLDIyNy40MiwxOTYuNSwyMTQuNDIsMjA4LjI1LDIwNi44MiIgc3R5bGU9InN0cm9rZTojMTgxODE4O3N0cm9rZS13aWR0aDoxLjA7Ii8+PC9nPjwhLS1saW5rIENhdCB0byBNYW1tYWwtLT48ZyBpZD0ibGlua19DYXRfTWFtbWFsIj48cGF0aCBjb2RlTGluZT0iMTAwIiBkPSJNMzM0LjY4LDEyMi42NyBDMzE0LjM4LDE0OS42OSAyODguNzIsMTgzLjg0IDI2OC4yNiwyMTEuMDcgIiBmaWxsPSJub25lIiBpZD0iQ2F0LXRvLU1hbW1hbCIgc3R5bGU9InN0cm9rZTojMTgxODE4O3N0cm9rZS13aWR0aDoxLjA7c3Ryb2tlLWRhc2hhcnJheTo3LjAsNy4wOyIvPjxwb2x5Z29uIGZpbGw9Im5vbmUiIHBvaW50cz0iMjczLjU5LDIxNS42MywyNTUuOTgsMjI3LjQyLDI2Mi40LDIwNy4yMiwyNzMuNTksMjE1LjYzIiBzdHlsZT0ic3Ryb2tlOiMxODE4MTg7c3Ryb2tlLXdpZHRoOjEuMDsiLz48L2c+PCEtLWxpbmsgU2hhcmsgdG8gT3ZpcGFyb3VzLS0+PGcgaWQ9ImxpbmtfU2hhcmtfT3ZpcGFyb3VzIj48cGF0aCBjb2RlTGluZT0iMTAxIiBkPSJNMTU1Ni4xMywxMjIuNjcgQzE1NjQuMTcsMTQ4LjY3IDE1NzQuMjYsMTgxLjI2IDE1ODIuNTEsMjA3Ljk1ICIgZmlsbD0ibm9uZSIgaWQ9IlNoYXJrLXRvLU92aXBhcm91cyIgc3R5bGU9InN0cm9rZTojMTgxODE4O3N0cm9rZS13aWR0aDoxLjA7c3Ryb2tlLWRhc2hhcnJheTo3LjAsNy4wOyIvPjxwb2x5Z29uIGZpbGw9Im5vbmUiIHBvaW50cz0iMTU4OS4zMSwyMDYuMjQsMTU4OC41NCwyMjcuNDIsMTU3NS45NCwyMTAuMzgsMTU4OS4zMSwyMDYuMjQiIHN0eWxlPSJzdHJva2U6IzE4MTgxODtzdHJva2Utd2lkdGg6MS4wOyIvPjwvZz48IS0tbGluayBXaGFsZSB0byBNYW1tYWwtLT48ZyBpZD0ibGlua19XaGFsZV9NYW1tYWwiPjxwYXRoIGNvZGVMaW5lPSIxMDIiIGQ9Ik04MDMuNDQsMTIyLjY0IEM3ODYuMiwxMzEuMDQgNzY3LjgxLDEzOS4wMyA3NTAsMTQ1IEM1NzAuNjIsMjA1LjExIDUxMy4xNSwxNjguOSAzMzEsMjIwIEMzMjkuNTUsMjIwLjQxIDMyOC4wOSwyMjAuODMgMzI2LjYzLDIyMS4yNiAiIGZpbGw9Im5vbmUiIGlkPSJXaGFsZS10by1NYW1tYWwiIHN0eWxlPSJzdHJva2U6IzE4MTgxODtzdHJva2Utd2lkdGg6MS4wO3N0cm9rZS1kYXNoYXJyYXk6Ny4wLDcuMDsiLz48cG9seWdvbiBmaWxsPSJub25lIiBwb2ludHM9IjMyOC41OSwyMjcuOTgsMzA3LjQxLDIyNy40NCwzMjQuMywyMTQuNjUsMzI4LjU5LDIyNy45OCIgc3R5bGU9InN0cm9rZTojMTgxODE4O3N0cm9rZS13aWR0aDoxLjA7Ii8+PC9nPjwhLS1saW5rIE93bCB0byBNYW1tYWwtLT48ZyBpZD0ibGlua19Pd2xfTWFtbWFsIj48cGF0aCBjb2RlTGluZT0iMTAzIiBkPSJNNTM5LjUsMTIyLjYxIEM1MjQuNzgsMTMwLjI5IDUwOS41MiwxMzguMDMgNDk1LDE0NSBDNDM5Ljk2LDE3MS40MyAzNzcuMTksMTk4LjYxIDMyNi44OSwyMTkuNjggIiBmaWxsPSJub25lIiBpZD0iT3dsLXRvLU1hbW1hbCIgc3R5bGU9InN0cm9rZTojMTgxODE4O3N0cm9rZS13aWR0aDoxLjA7c3Ryb2tlLWRhc2hhcnJheTo3LjAsNy4wOyIvPjxwb2x5Z29uIGZpbGw9Im5vbmUiIHBvaW50cz0iMzI5LjQxLDIyNi4yMSwzMDguMjYsMjI3LjQ1LDMyNC4wMywyMTMuMjksMzI5LjQxLDIyNi4yMSIgc3R5bGU9InN0cm9rZTojMTgxODE4O3N0cm9rZS13aWR0aDoxLjA7Ii8+PC9nPjwhLS1yZXZlcnNlIGxpbmsgRm9vZCB0byBDYXRGb29kLS0+PGcgaWQ9ImxpbmtfRm9vZF9DYXRGb29kIj48cGF0aCBjb2RlTGluZT0iMTA1IiBkPSJNMTMyNS4wOCwyOTkuMTkgQzEyODQuNTEsMzE4LjM2IDEyMzYuNDIsMzQxLjA5IDExOTguNjMsMzU4Ljk2ICIgZmlsbD0ibm9uZSIgaWQ9IkZvb2QtYmFja3RvLUNhdEZvb2QiIHN0eWxlPSJzdHJva2U6IzE4MTgxODtzdHJva2Utd2lkdGg6MS4wO3N0cm9rZS1kYXNoYXJyYXk6Ny4wLDcuMDsiLz48cG9seWdvbiBmaWxsPSJub25lIiBwb2ludHM9IjEzMjIuMzQsMjkyLjc0LDEzNDMuNDEsMjkwLjUzLDEzMjguMzIsMzA1LjQsMTMyMi4zNCwyOTIuNzQiIHN0eWxlPSJzdHJva2U6IzE4MTgxODtzdHJva2Utd2lkdGg6MS4wOyIvPjwvZz48IS0tcmV2ZXJzZSBsaW5rIEZvb2QgdG8gRG9nRm9vZC0tPjxnIGlkPSJsaW5rX0Zvb2RfRG9nRm9vZCI+PHBhdGggY29kZUxpbmU9IjEwNiIgZD0iTTEzNzQuOTMsMzA3LjA2IEMxMzYyLjg3LDMyNC4yMiAxMzQ5LjU1LDM0My4xOCAxMzM4LjczLDM1OC41OCAiIGZpbGw9Im5vbmUiIGlkPSJGb29kLWJhY2t0by1Eb2dGb29kIiBzdHlsZT0ic3Ryb2tlOiMxODE4MTg7c3Ryb2tlLXdpZHRoOjEuMDtzdHJva2UtZGFzaGFycmF5OjcuMCw3LjA7Ii8+PHBvbHlnb24gZmlsbD0ibm9uZSIgcG9pbnRzPSIxMzY5LjIxLDMwMy4wMywxMzg2LjQzLDI5MC42OSwxMzgwLjY2LDMxMS4wOCwxMzY5LjIxLDMwMy4wMyIgc3R5bGU9InN0cm9rZTojMTgxODE4O3N0cm9rZS13aWR0aDoxLjA7Ii8+PC9nPjwhLS1yZXZlcnNlIGxpbmsgRm9vZCB0byBGaXNoRm9vZC0tPjxnIGlkPSJsaW5rX0Zvb2RfRmlzaEZvb2QiPjxwYXRoIGNvZGVMaW5lPSIxMDciIGQ9Ik0xNDQxLjQzLDMwNy4wNiBDMTQ1My42MiwzMjQuMjIgMTQ2Ny4wOSwzNDMuMTggMTQ3OC4wMywzNTguNTggIiBmaWxsPSJub25lIiBpZD0iRm9vZC1iYWNrdG8tRmlzaEZvb2QiIHN0eWxlPSJzdHJva2U6IzE4MTgxODtzdHJva2Utd2lkdGg6MS4wO3N0cm9rZS1kYXNoYXJyYXk6Ny4wLDcuMDsiLz48cG9seWdvbiBmaWxsPSJub25lIiBwb2ludHM9IjE0MzUuNjgsMzExLjA1LDE0MjkuOCwyOTAuNjksMTQ0Ny4wOSwzMDIuOTQsMTQzNS42OCwzMTEuMDUiIHN0eWxlPSJzdHJva2U6IzE4MTgxODtzdHJva2Utd2lkdGg6MS4wOyIvPjwvZz48IS0tcmV2ZXJzZSBsaW5rIEZvb2QgdG8gQmlyZEZvb2QtLT48ZyBpZD0ibGlua19Gb29kX0JpcmRGb29kIj48cGF0aCBjb2RlTGluZT0iMTA4IiBkPSJNMTQ5MC45NSwyOTkuMDYgQzE1MzEuNzIsMzE4LjI2IDE1ODAuMTIsMzQxLjA1IDE2MTguMTQsMzU4Ljk2ICIgZmlsbD0ibm9uZSIgaWQ9IkZvb2QtYmFja3RvLUJpcmRGb29kIiBzdHlsZT0ic3Ryb2tlOiMxODE4MTg7c3Ryb2tlLXdpZHRoOjEuMDtzdHJva2UtZGFzaGFycmF5OjcuMCw3LjA7Ii8+PHBvbHlnb24gZmlsbD0ibm9uZSIgcG9pbnRzPSIxNDg3LjkzLDMwNS4zOCwxNDcyLjgyLDI5MC41MywxNDkzLjksMjkyLjcxLDE0ODcuOTMsMzA1LjM4IiBzdHlsZT0ic3Ryb2tlOiMxODE4MTg7c3Ryb2tlLXdpZHRoOjEuMDsiLz48L2c+PCEtLVNSQz1bZkxKQlJpOG00QnB4QXRtNHFVRzM4ZUg0TW83cnE3QVdLaXpSbm1JaFVMM1JJR18wbHpWczlpNU1VOUxVTzNveEUtbDdSNVdFSWo1dkFHaDh3T3ZHRVljWHUwYlRRSWRBcEF1WENxakhRZWpwcU4zcktsUFhvczdqUUVuWE4tQTFUVzhrV3VDVWhRaWdKVVoyXzh1SnNiR1k5R1QyY0RsOEV2VUlBckM4a1ItZDBPdGpYbEl2cGRzMy1OU0RNWjFWRkEzUVNtSktUVDU2RzFiODdlYk1xMkNrbzliX0JqVjBrQmlUckNndVZaQ0xldDVfd3R0VkxvWXdiWmx1RDFTMUoxX2VIRkFqaERBUWRRblBEYzhCaWdoTHR5Z1VnbW90T20wVW9POEIzdHJIeEdhcWdYYzBRWFJTZ3hSUVdGbjJGR1RINFU2emNYeVJvM2JnRWVZUTJFX0xORndxelowMHpJcHVubnRVUDFCcEpaVmJCT0pRdDlKdUE2SHc5UjZUWFVhLVllT1o3S0kzSUdpWm52N2YtMlpRcHQwbzRpZ2dLaks1THRINm9GMmh1SkF4dWMzYVd1V3RqcHZGaERpVENUb3lqVXdQNEZlR1hPOVplUGJFMUFtWmFGT0V3eGg3aU01bmxickJWdXJ6N0RERlN6bDNKeEZZX2ZndWN2bGt1eFpwWmlVcUJsNk9wV3lVclJ0eUJtMDBdLS0+PC9nPjwvc3ZnPg==;movable=1;resizable=1;rotatable=1;deletable=1;editable=1;locked=0;connectable=1;points=[[0,0,0,0,0],[0,0.25,0,0,0],[0,0.5,0,0,0],[0,0.75,0,0,0],[0,1,0,0,0],[0.25,0,0,0,0],[0.25,1,0,0,0],[0.5,0,0,0,0],[0.5,1,0,0,0],[0.75,0,0,0,0],[0.75,1,0,0,0],[1,0,0,0,0],[1,0.25,0,0,0],[1,0.5,0,0,0],[1,0.75,0,0,0],[1,1,0,0,0]];" vertex="1" parent="1">
            <mxGeometry x="-220" y="130" width="1764" height="428" as="geometry" />
          </mxCell>
        </UserObject>
      </root>
    </mxGraphModel>
  </diagram>
</mxfile>
